<?xml version="1.0" encoding="utf-8"?>
<svg xmlns="http://www.w3.org/2000/svg" xmlns:xlink="http://www.w3.org/1999/xlink" width="600" height="400" viewBox="0 0 2400 1600">
<defs>
  <clipPath id="clip220">
    <rect x="0" y="0" width="2400" height="1600"/>
  </clipPath>
</defs>
<path clip-path="url(#clip220)" d="M0 1600 L2400 1600 L2400 0 L0 0  Z" fill="#ffffff" fill-rule="evenodd" fill-opacity="1"/>
<defs>
  <clipPath id="clip221">
    <rect x="480" y="0" width="1681" height="1600"/>
  </clipPath>
</defs>
<path clip-path="url(#clip220)" d="M373.003 1400.82 L2352.76 1400.82 L2352.76 123.916 L373.003 123.916  Z" fill="#ffffff" fill-rule="evenodd" fill-opacity="1"/>
<defs>
  <clipPath id="clip222">
    <rect x="373" y="123" width="1981" height="1278"/>
  </clipPath>
</defs>
<polyline clip-path="url(#clip222)" style="stroke:#000000; stroke-linecap:round; stroke-linejoin:round; stroke-width:2; stroke-opacity:0.1; fill:none" points="895.957,1400.82 895.957,123.916 "/>
<polyline clip-path="url(#clip222)" style="stroke:#000000; stroke-linecap:round; stroke-linejoin:round; stroke-width:2; stroke-opacity:0.1; fill:none" points="1362.88,1400.82 1362.88,123.916 "/>
<polyline clip-path="url(#clip222)" style="stroke:#000000; stroke-linecap:round; stroke-linejoin:round; stroke-width:2; stroke-opacity:0.1; fill:none" points="1829.8,1400.82 1829.8,123.916 "/>
<polyline clip-path="url(#clip222)" style="stroke:#000000; stroke-linecap:round; stroke-linejoin:round; stroke-width:2; stroke-opacity:0.1; fill:none" points="2296.73,1400.82 2296.73,123.916 "/>
<polyline clip-path="url(#clip222)" style="stroke:#000000; stroke-linecap:round; stroke-linejoin:round; stroke-width:2; stroke-opacity:0.1; fill:none" points="373.003,1364.74 2352.76,1364.74 "/>
<polyline clip-path="url(#clip222)" style="stroke:#000000; stroke-linecap:round; stroke-linejoin:round; stroke-width:2; stroke-opacity:0.1; fill:none" points="373.003,1060.57 2352.76,1060.57 "/>
<polyline clip-path="url(#clip222)" style="stroke:#000000; stroke-linecap:round; stroke-linejoin:round; stroke-width:2; stroke-opacity:0.1; fill:none" points="373.003,756.406 2352.76,756.406 "/>
<polyline clip-path="url(#clip222)" style="stroke:#000000; stroke-linecap:round; stroke-linejoin:round; stroke-width:2; stroke-opacity:0.1; fill:none" points="373.003,452.238 2352.76,452.238 "/>
<polyline clip-path="url(#clip222)" style="stroke:#000000; stroke-linecap:round; stroke-linejoin:round; stroke-width:2; stroke-opacity:0.1; fill:none" points="373.003,148.071 2352.76,148.071 "/>
<polyline clip-path="url(#clip220)" style="stroke:#000000; stroke-linecap:round; stroke-linejoin:round; stroke-width:4; stroke-opacity:1; fill:none" points="373.003,1400.82 2352.76,1400.82 "/>
<polyline clip-path="url(#clip220)" style="stroke:#000000; stroke-linecap:round; stroke-linejoin:round; stroke-width:4; stroke-opacity:1; fill:none" points="895.957,1400.82 895.957,1381.92 "/>
<polyline clip-path="url(#clip220)" style="stroke:#000000; stroke-linecap:round; stroke-linejoin:round; stroke-width:4; stroke-opacity:1; fill:none" points="1362.88,1400.82 1362.88,1381.92 "/>
<polyline clip-path="url(#clip220)" style="stroke:#000000; stroke-linecap:round; stroke-linejoin:round; stroke-width:4; stroke-opacity:1; fill:none" points="1829.8,1400.82 1829.8,1381.92 "/>
<polyline clip-path="url(#clip220)" style="stroke:#000000; stroke-linecap:round; stroke-linejoin:round; stroke-width:4; stroke-opacity:1; fill:none" points="2296.73,1400.82 2296.73,1381.92 "/>
<g clip-path="url(#clip220)">
<text style="fill:#000000; fill-opacity:1; font-family:Bookman Old Style,Bookman,Georgia,serif; font-size:63px; text-anchor:middle;" transform="rotate(0, 895.957, 1474.16)" x="895.957" y="1474.16">2.5e5</text>
</g>
<g clip-path="url(#clip220)">
<text style="fill:#000000; fill-opacity:1; font-family:Bookman Old Style,Bookman,Georgia,serif; font-size:63px; text-anchor:middle;" transform="rotate(0, 1362.88, 1474.16)" x="1362.88" y="1474.16">5e5</text>
</g>
<g clip-path="url(#clip220)">
<text style="fill:#000000; fill-opacity:1; font-family:Bookman Old Style,Bookman,Georgia,serif; font-size:63px; text-anchor:middle;" transform="rotate(0, 1829.8, 1474.16)" x="1829.8" y="1474.16">7.5e5</text>
</g>
<g clip-path="url(#clip220)">
<text style="fill:#000000; fill-opacity:1; font-family:Bookman Old Style,Bookman,Georgia,serif; font-size:63px; text-anchor:middle;" transform="rotate(0, 2296.73, 1474.16)" x="2296.73" y="1474.16">1e6</text>
</g>
<g clip-path="url(#clip220)">
<text style="fill:#000000; fill-opacity:1; font-family:Bookman Old Style,Bookman,Georgia,serif; font-size:90px; text-anchor:middle;" transform="rotate(0, 1362.88, 1581.28)" x="1362.88" y="1581.28">Time (Years)</text>
</g>
<polyline clip-path="url(#clip220)" style="stroke:#000000; stroke-linecap:round; stroke-linejoin:round; stroke-width:4; stroke-opacity:1; fill:none" points="373.003,1400.82 373.003,123.916 "/>
<polyline clip-path="url(#clip220)" style="stroke:#000000; stroke-linecap:round; stroke-linejoin:round; stroke-width:4; stroke-opacity:1; fill:none" points="373.003,1364.74 391.901,1364.74 "/>
<polyline clip-path="url(#clip220)" style="stroke:#000000; stroke-linecap:round; stroke-linejoin:round; stroke-width:4; stroke-opacity:1; fill:none" points="373.003,1060.57 391.901,1060.57 "/>
<polyline clip-path="url(#clip220)" style="stroke:#000000; stroke-linecap:round; stroke-linejoin:round; stroke-width:4; stroke-opacity:1; fill:none" points="373.003,756.406 391.901,756.406 "/>
<polyline clip-path="url(#clip220)" style="stroke:#000000; stroke-linecap:round; stroke-linejoin:round; stroke-width:4; stroke-opacity:1; fill:none" points="373.003,452.238 391.901,452.238 "/>
<polyline clip-path="url(#clip220)" style="stroke:#000000; stroke-linecap:round; stroke-linejoin:round; stroke-width:4; stroke-opacity:1; fill:none" points="373.003,148.071 391.901,148.071 "/>
<g clip-path="url(#clip220)">
<text style="fill:#000000; fill-opacity:1; font-family:Bookman Old Style,Bookman,Georgia,serif; font-size:63px; text-anchor:middle;" transform="rotate(0, 287.523, 1386.24)" x="287.523" y="1386.24">0.0</text>
</g>
<g clip-path="url(#clip220)">
<text style="fill:#000000; fill-opacity:1; font-family:Bookman Old Style,Bookman,Georgia,serif; font-size:63px; text-anchor:middle;" transform="rotate(0, 232.334, 1082.07)" x="232.334" y="1082.07">2.5e-5</text>
</g>
<g clip-path="url(#clip220)">
<text style="fill:#000000; fill-opacity:1; font-family:Bookman Old Style,Bookman,Georgia,serif; font-size:63px; text-anchor:middle;" transform="rotate(0, 262.149, 777.906)" x="262.149" y="777.906">5e-5</text>
</g>
<g clip-path="url(#clip220)">
<text style="fill:#000000; fill-opacity:1; font-family:Bookman Old Style,Bookman,Georgia,serif; font-size:63px; text-anchor:middle;" transform="rotate(0, 232.334, 473.738)" x="232.334" y="473.738">7.5e-5</text>
</g>
<g clip-path="url(#clip220)">
<text style="fill:#000000; fill-opacity:1; font-family:Bookman Old Style,Bookman,Georgia,serif; font-size:63px; text-anchor:middle;" transform="rotate(0, 262.149, 169.571)" x="262.149" y="169.571">1e-4</text>
</g>
<g clip-path="url(#clip220)">
<text style="fill:#000000; fill-opacity:1; font-family:Bookman Old Style,Bookman,Georgia,serif; font-size:90px; text-anchor:middle;" transform="rotate(-90, 73.4781, 762.367)" x="73.4781" y="762.367">Abundance per Hydrogen Molecule</text>
</g>
<g clip-path="url(#clip220)">
<text style="fill:#000000; fill-opacity:1; font-family:Bookman Old Style,Bookman,Georgia,serif; font-size:90px; text-anchor:middle;" transform="rotate(0, 1362.88, 73.2)" x="1362.88" y="73.2">Glover Vs. Umist: Carbon</text>
</g>
<polyline clip-path="url(#clip222)" style="stroke:#2b194c; stroke-linecap:round; stroke-linejoin:round; stroke-width:16; stroke-opacity:1; fill:none" points="429.034,1364.68 434.637,1346.82 440.24,1332.28 445.843,1318.37 451.446,1305.27 457.05,1293.44 462.653,1282.94 468.256,1273.76 473.859,1265.78 479.462,1258.88 485.065,1252.91 490.668,1247.77 496.271,1243.35 501.874,1239.55 507.477,1236.31 513.08,1233.55 518.683,1231.21 524.286,1229.24 529.889,1227.57 535.493,1226.18 541.096,1225.01 546.699,1224.07 552.302,1223.29 557.905,1222.66 563.508,1222.16 569.111,1221.75 574.714,1221.46 580.317,1221.25 585.92,1221.06 591.523,1220.98 597.126,1220.93 602.729,1220.88 608.332,1220.89 613.936,1220.94 619.539,1220.99 625.142,1221.08 630.745,1221.16 636.348,1221.25 641.951,1221.35 647.554,1221.44 653.157,1221.54 658.76,1221.63 664.363,1221.73 669.966,1221.81 675.569,1221.9 681.172,1221.97 686.776,1222.04 692.379,1222.1 697.982,1222.15 703.585,1222.2 709.188,1222.23 714.791,1222.25 720.394,1222.28 725.997,1222.28 731.6,1222.27 737.203,1222.26 742.806,1222.22 748.409,1222.17 754.012,1222.14 759.615,1222.09 765.219,1222.02 770.822,1221.93 776.425,1221.83 782.028,1221.72 787.631,1221.6 793.234,1221.46 798.837,1221.32 804.44,1221.17 810.043,1221 815.646,1220.83 821.249,1220.64 826.852,1220.44 832.455,1220.23 838.058,1220 843.662,1219.77 849.265,1219.52 854.868,1219.27 860.471,1219 866.074,1218.72 871.677,1218.43 877.28,1218.12 882.883,1217.81 888.486,1217.49 894.089,1217.15 899.692,1216.8 905.295,1216.45 910.898,1216.08 916.502,1215.7 922.105,1215.31 927.708,1214.91 933.311,1214.5 938.914,1214.08 944.517,1213.65 950.12,1213.21 955.723,1212.76 961.326,1212.3 966.929,1211.83 972.532,1211.36 978.135,1210.87 983.738,1210.38 989.341,1209.87 994.945,1209.36 1000.55,1208.84 1006.15,1208.31 1011.75,1207.78 1017.36,1207.24 1022.96,1206.69 1028.56,1206.13 1034.17,1205.57 1039.77,1205 1045.37,1204.42 1050.98,1203.84 1056.58,1203.25 1062.18,1202.66 1067.78,1202.06 1073.39,1201.45 1078.99,1200.84 1084.59,1200.23 1090.2,1199.61 1095.8,1198.99 1101.4,1198.36 1107.01,1197.73 1112.61,1197.1 1118.21,1196.46 1123.82,1195.82 1129.42,1195.17 1135.02,1194.53 1140.62,1193.88 1146.23,1193.23 1151.83,1192.58 1157.43,1191.92 1163.04,1191.26 1168.64,1190.58 1174.24,1189.91 1179.85,1189.24 1185.45,1188.59 1191.05,1187.93 1196.66,1187.27 1202.26,1186.6 1207.86,1185.94 1213.46,1185.28 1219.07,1184.61 1224.67,1183.95 1230.27,1183.29 1235.88,1182.63 1241.48,1181.96 1247.08,1181.3 1252.69,1180.64 1258.29,1179.98 1263.89,1179.33 1269.5,1178.67 1275.1,1178.02 1280.7,1177.36 1286.3,1176.71 1291.91,1176.06 1297.51,1175.42 1303.11,1174.77 1308.72,1174.13 1314.32,1173.49 1319.92,1172.85 1325.53,1172.22 1331.13,1171.59 1336.73,1170.96 1342.34,1170.33 1347.94,1169.71 1353.54,1169.1 1359.14,1168.48 1364.75,1167.87 1370.35,1167.26 1375.95,1166.66 1381.56,1166.06 1387.16,1165.46 1392.76,1164.87 1398.37,1164.29 1403.97,1163.7 1409.57,1163.12 1415.18,1162.55 1420.78,1161.98 1426.38,1161.42 1431.98,1160.86 1437.59,1160.3 1443.19,1159.75 1448.79,1159.21 1454.4,1158.67 1460,1158.13 1465.6,1157.6 1471.21,1157.07 1476.81,1156.56 1482.41,1156.04 1488.01,1155.53 1493.62,1155.03 1499.22,1154.53 1504.82,1154.03 1510.43,1153.55 1516.03,1153.06 1521.63,1152.58 1527.24,1152.11 1532.84,1151.65 1538.44,1151.19 1544.05,1150.73 1549.65,1150.28 1555.25,1149.84 1560.85,1149.4 1566.46,1148.97 1572.06,1148.54 1577.66,1148.12 1583.27,1147.7 1588.87,1147.29 1594.47,1146.89 1600.08,1146.49 1605.68,1146.1 1611.28,1145.71 1616.89,1145.33 1622.49,1144.95 1628.09,1144.58 1633.69,1144.22 1639.3,1143.86 1644.9,1143.51 1650.5,1143.16 1656.11,1142.82 1661.71,1142.48 1667.31,1142.15 1672.92,1141.82 1678.52,1141.5 1684.12,1141.19 1689.73,1140.88 1695.33,1140.57 1700.93,1140.27 1706.53,1139.98 1712.14,1139.69 1717.74,1139.41 1723.34,1139.13 1728.95,1138.85 1734.55,1138.59 1740.15,1138.32 1745.76,1138.06 1751.36,1137.81 1756.96,1137.56 1762.57,1137.32 1768.17,1137.08 1773.77,1136.84 1779.37,1136.61 1784.98,1136.39 1790.58,1136.17 1796.18,1135.95 1801.79,1135.74 1807.39,1135.53 1812.99,1135.33 1818.6,1135.13 1824.2,1134.93 1829.8,1134.74 1835.41,1134.56 1841.01,1134.38 1846.61,1134.2 1852.21,1134.02 1857.82,1133.85 1863.42,1133.69 1869.02,1133.52 1874.63,1133.36 1880.23,1133.21 1885.83,1133.06 1891.44,1132.91 1897.04,1132.76 1902.64,1132.62 1908.25,1132.48 1913.85,1132.35 1919.45,1132.22 1925.05,1132.09 1930.66,1131.96 1936.26,1131.84 1941.86,1131.72 1947.47,1131.6 1953.07,1131.49 1958.67,1131.38 1964.28,1131.27 1969.88,1131.17 1975.48,1131.06 1981.09,1130.96 1986.69,1130.87 1992.29,1130.77 1997.89,1130.68 2003.5,1130.59 2009.1,1130.5 2014.7,1130.42 2020.31,1130.33 2025.91,1130.25 2031.51,1130.17 2037.12,1130.1 2042.72,1130.02 2048.32,1129.95 2053.93,1129.88 2059.53,1129.81 2065.13,1129.74 2070.73,1129.68 2076.34,1129.61 2081.94,1129.55 2087.54,1129.49 2093.15,1129.43 2098.75,1129.38 2104.35,1129.32 2109.96,1129.27 2115.56,1129.21 2121.16,1129.16 2126.77,1129.11 2132.37,1129.06 2137.97,1129.02 2143.57,1128.97 2149.18,1128.92 2154.78,1128.88 2160.38,1128.84 2165.99,1128.8 2171.59,1128.76 2177.19,1128.72 2182.8,1128.68 2188.4,1128.64 2194,1128.61 2199.61,1128.57 2205.21,1128.54 2210.81,1128.51 2216.41,1128.48 2222.02,1128.44 2227.62,1128.41 2233.22,1128.39 2238.83,1128.36 2244.43,1128.33 2250.03,1128.3 2255.64,1128.28 2261.24,1128.25 2266.84,1128.23 2272.45,1128.2 2278.05,1128.18 2283.65,1128.16 2289.25,1128.14 2296.73,1128.11 "/>
<polyline clip-path="url(#clip222)" style="stroke:#3569ac; stroke-linecap:round; stroke-linejoin:round; stroke-width:16; stroke-opacity:1; fill:none" points="429.034,160.055 434.637,416.326 440.24,567.023 445.843,656.984 451.446,727.262 457.05,787.29 462.653,839.448 468.256,884.983 473.859,924.484 479.462,958.957 485.065,988.746 490.668,1014.58 496.271,1037 501.874,1056.45 507.477,1073.33 513.08,1087.99 518.683,1100.73 524.286,1111.81 529.889,1121.43 535.493,1129.49 541.096,1136.92 546.699,1143.58 552.302,1149.23 557.905,1154.2 563.508,1158.6 569.111,1162.41 574.714,1165.75 580.317,1168.95 585.92,1171.87 591.523,1174.3 597.126,1176.42 602.729,1178.42 608.332,1180.27 613.936,1181.92 619.539,1183.4 625.142,1184.74 630.745,1185.98 636.348,1187.12 641.951,1188.2 647.554,1189.17 653.157,1190.15 658.76,1190.76 664.363,1191.37 669.966,1192.11 675.569,1192.93 681.172,1193.74 686.776,1194.36 692.379,1194.9 697.982,1195.41 703.585,1195.97 709.188,1196.56 714.791,1196.94 720.394,1197.2 725.997,1197.55 731.6,1197.94 737.203,1198.27 742.806,1198.56 748.409,1198.83 754.012,1199.08 759.615,1199.31 765.219,1199.53 770.822,1199.71 776.425,1199.88 782.028,1200.01 787.631,1200.13 793.234,1200.24 798.837,1200.33 804.44,1200.41 810.043,1200.46 815.646,1200.5 821.249,1200.53 826.852,1200.53 832.455,1200.52 838.058,1200.5 843.662,1200.45 849.265,1200.4 854.868,1200.32 860.471,1200.24 866.074,1200.14 871.677,1200.02 877.28,1199.89 882.883,1199.75 888.486,1199.59 894.089,1199.42 899.692,1199.23 905.295,1199.04 910.898,1198.83 916.502,1198.61 922.105,1198.38 927.708,1198.13 933.311,1197.88 938.914,1197.61 944.517,1197.33 950.12,1197.05 955.723,1196.75 961.326,1196.44 966.929,1196.12 972.532,1195.79 978.135,1195.45 983.738,1195.11 989.341,1194.75 994.945,1194.39 1000.55,1194.03 1006.15,1193.66 1011.75,1193.28 1017.36,1192.89 1022.96,1192.48 1028.56,1192.04 1034.17,1191.59 1039.77,1191.12 1045.37,1190.67 1050.98,1190.24 1056.58,1189.85 1062.18,1189.54 1067.78,1189.24 1073.39,1188.91 1078.99,1188.48 1084.59,1187.91 1090.2,1187.08 1095.8,1185.87 1101.4,1185.37 1107.01,1185 1112.61,1184.56 1118.21,1184.13 1123.82,1183.7 1129.42,1183.26 1135.02,1182.8 1140.62,1182.34 1146.23,1181.86 1151.83,1181.37 1157.43,1180.88 1163.04,1180.38 1168.64,1179.88 1174.24,1179.37 1179.85,1178.85 1185.45,1178.34 1191.05,1177.82 1196.66,1177.29 1202.26,1176.77 1207.86,1176.24 1213.46,1175.71 1219.07,1175.18 1224.67,1174.64 1230.27,1174.11 1235.88,1173.57 1241.48,1173.04 1247.08,1172.5 1252.69,1171.96 1258.29,1171.43 1263.89,1170.89 1269.5,1170.36 1275.1,1169.82 1280.7,1169.28 1286.3,1168.75 1291.91,1168.21 1297.51,1167.68 1303.11,1167.15 1308.72,1166.62 1314.32,1166.09 1319.92,1165.56 1325.53,1165.04 1331.13,1164.51 1336.73,1163.99 1342.34,1163.47 1347.94,1162.96 1353.54,1162.44 1359.14,1161.93 1364.75,1161.42 1370.35,1160.91 1375.95,1160.41 1381.56,1159.91 1387.16,1159.41 1392.76,1158.91 1398.37,1158.42 1403.97,1157.93 1409.57,1157.45 1415.18,1156.96 1420.78,1156.48 1426.38,1156.01 1431.98,1155.54 1437.59,1155.07 1443.19,1154.6 1448.79,1154.14 1454.4,1153.69 1460,1153.23 1465.6,1152.78 1471.21,1152.34 1476.81,1151.9 1482.41,1151.46 1488.01,1151.03 1493.62,1150.6 1499.22,1150.18 1504.82,1149.76 1510.43,1149.35 1516.03,1148.94 1521.63,1148.53 1527.24,1148.13 1532.84,1147.74 1538.44,1147.35 1544.05,1146.96 1549.65,1146.58 1555.25,1146.2 1560.85,1145.83 1566.46,1145.46 1572.06,1145.1 1577.66,1144.74 1583.27,1144.39 1588.87,1144.04 1594.47,1143.7 1600.08,1143.36 1605.68,1143.03 1611.28,1142.7 1616.89,1142.37 1622.49,1142.06 1628.09,1141.74 1633.69,1141.43 1639.3,1141.13 1644.9,1140.83 1650.5,1140.53 1656.11,1140.24 1661.71,1139.96 1667.31,1139.68 1672.92,1139.4 1678.52,1139.13 1684.12,1138.87 1689.73,1138.6 1695.33,1138.35 1700.93,1138.09 1706.53,1137.85 1712.14,1137.6 1717.74,1137.37 1723.34,1137.13 1728.95,1136.9 1734.55,1136.68 1740.15,1136.46 1745.76,1136.24 1751.36,1136.03 1756.96,1135.82 1762.57,1135.62 1768.17,1135.41 1773.77,1135.22 1779.37,1135.02 1784.98,1134.83 1790.58,1134.65 1796.18,1134.47 1801.79,1134.29 1807.39,1134.12 1812.99,1133.95 1818.6,1133.78 1824.2,1133.62 1829.8,1133.47 1835.41,1133.31 1841.01,1133.16 1846.61,1133.01 1852.21,1132.87 1857.82,1132.73 1863.42,1132.59 1869.02,1132.46 1874.63,1132.32 1880.23,1132.2 1885.83,1132.07 1891.44,1131.95 1897.04,1131.83 1902.64,1131.71 1908.25,1131.6 1913.85,1131.49 1919.45,1131.38 1925.05,1131.27 1930.66,1131.17 1936.26,1131.07 1941.86,1130.97 1947.47,1130.88 1953.07,1130.78 1958.67,1130.69 1964.28,1130.6 1969.88,1130.52 1975.48,1130.43 1981.09,1130.35 1986.69,1130.27 1992.29,1130.19 1997.89,1130.11 2003.5,1130.04 2009.1,1129.97 2014.7,1129.9 2020.31,1129.83 2025.91,1129.76 2031.51,1129.7 2037.12,1129.63 2042.72,1129.57 2048.32,1129.51 2053.93,1129.45 2059.53,1129.39 2065.13,1129.34 2070.73,1129.28 2076.34,1129.23 2081.94,1129.18 2087.54,1129.13 2093.15,1129.08 2098.75,1129.03 2104.35,1128.99 2109.96,1128.94 2115.56,1128.9 2121.16,1128.86 2126.77,1128.81 2132.37,1128.77 2137.97,1128.73 2143.57,1128.7 2149.18,1128.66 2154.78,1128.62 2160.38,1128.59 2165.99,1128.55 2171.59,1128.52 2177.19,1128.49 2182.8,1128.46 2188.4,1128.42 2194,1128.39 2199.61,1128.36 2205.21,1128.34 2210.81,1128.31 2216.41,1128.28 2222.02,1128.26 2227.62,1128.23 2233.22,1128.21 2238.83,1128.18 2244.43,1128.16 2250.03,1128.14 2255.64,1128.11 2261.24,1128.09 2266.84,1128.07 2272.45,1128.05 2278.05,1128.03 2283.65,1128.01 2289.25,1127.99 2296.73,1127.97 "/>
<polyline clip-path="url(#clip222)" style="stroke:#b9b3f0; stroke-linecap:round; stroke-linejoin:round; stroke-width:16; stroke-opacity:1; fill:none" points="429.034,1364.68 434.637,1345.83 440.24,1331.84 445.843,1320.03 451.446,1308.57 457.05,1296.85 462.653,1284.76 468.256,1272.4 473.859,1259.94 479.462,1247.56 485.065,1235.45 490.668,1223.73 496.271,1212.5 501.874,1201.81 507.477,1191.68 513.08,1182.11 518.683,1173.08 524.286,1164.57 529.889,1156.56 535.493,1149.02 541.096,1141.91 546.699,1135.21 552.302,1128.89 557.905,1122.92 563.508,1117.28 569.111,1111.94 574.714,1106.88 580.317,1102.08 585.92,1097.53 591.523,1093.19 597.126,1089.06 602.729,1085.11 608.332,1081.33 613.936,1077.72 619.539,1074.25 625.142,1070.91 630.745,1067.7 636.348,1064.6 641.951,1061.61 647.554,1058.71 653.157,1055.9 658.76,1053.17 664.363,1050.52 669.966,1047.94 675.569,1045.43 681.172,1042.99 686.776,1040.6 692.379,1038.28 697.982,1036 703.585,1033.77 709.188,1031.59 714.791,1029.45 720.394,1027.35 725.997,1025.29 731.6,1023.27 737.203,1021.29 742.806,1019.35 748.409,1017.44 754.012,1015.57 759.615,1013.74 765.219,1011.94 770.822,1010.16 776.425,1008.41 782.028,1006.7 787.631,1005.01 793.234,1003.34 798.837,1001.71 804.44,1000.1 810.043,998.523 815.646,996.97 821.249,995.444 826.852,993.944 832.455,992.47 838.058,991.022 843.662,989.599 849.265,988.197 854.868,986.816 860.471,985.458 866.074,984.121 871.677,982.805 877.28,981.511 882.883,980.237 888.486,978.984 894.089,977.752 899.692,976.54 905.295,975.347 910.898,974.175 916.502,973.022 922.105,971.888 927.708,970.773 933.311,969.677 938.914,968.6 944.517,967.54 950.12,966.496 955.723,965.468 961.326,964.455 966.929,963.458 972.532,962.477 978.135,961.511 983.738,960.559 989.341,959.622 994.945,958.7 1000.55,957.791 1006.15,956.897 1011.75,956.016 1017.36,955.148 1022.96,954.294 1028.56,953.453 1034.17,952.624 1039.77,951.808 1045.37,951.004 1050.98,950.212 1056.58,949.432 1062.18,948.663 1067.78,947.905 1073.39,947.158 1078.99,946.42 1084.59,945.692 1090.2,944.973 1095.8,944.264 1101.4,943.564 1107.01,942.873 1112.61,942.191 1118.21,941.517 1123.82,940.853 1129.42,940.196 1135.02,939.547 1140.62,938.907 1146.23,938.274 1151.83,937.649 1157.43,937.031 1163.04,936.421 1168.64,935.818 1174.24,935.221 1179.85,934.631 1185.45,934.048 1191.05,933.471 1196.66,932.9 1202.26,932.336 1207.86,931.777 1213.46,931.224 1219.07,930.676 1224.67,930.133 1230.27,929.595 1235.88,929.062 1241.48,928.534 1247.08,928.01 1252.69,927.49 1258.29,926.975 1263.89,926.464 1269.5,925.957 1275.1,925.454 1280.7,924.955 1286.3,924.459 1291.91,923.968 1297.51,923.479 1303.11,922.995 1308.72,922.514 1314.32,922.036 1319.92,921.561 1325.53,921.089 1331.13,920.62 1336.73,920.154 1342.34,919.69 1347.94,919.23 1353.54,918.772 1359.14,918.316 1364.75,917.862 1370.35,917.411 1375.95,916.962 1381.56,916.515 1387.16,916.069 1392.76,915.626 1398.37,915.185 1403.97,914.745 1409.57,914.307 1415.18,913.87 1420.78,913.435 1426.38,913.001 1431.98,912.568 1437.59,912.136 1443.19,911.705 1448.79,911.275 1454.4,910.847 1460,910.419 1465.6,909.992 1471.21,909.565 1476.81,909.14 1482.41,908.715 1488.01,908.29 1493.62,907.866 1499.22,907.442 1504.82,907.019 1510.43,906.596 1516.03,906.174 1521.63,905.751 1527.24,905.328 1532.84,904.906 1538.44,904.483 1544.05,904.061 1549.65,903.638 1555.25,903.215 1560.85,902.792 1566.46,902.368 1572.06,901.944 1577.66,901.519 1583.27,901.094 1588.87,900.668 1594.47,900.241 1600.08,899.814 1605.68,899.386 1611.28,898.957 1616.89,898.526 1622.49,898.095 1628.09,897.664 1633.69,897.231 1639.3,896.799 1644.9,896.365 1650.5,895.931 1656.11,895.496 1661.71,895.06 1667.31,894.623 1672.92,894.185 1678.52,893.746 1684.12,893.305 1689.73,892.863 1695.33,892.419 1700.93,891.974 1706.53,891.526 1712.14,891.077 1717.74,890.626 1723.34,890.173 1728.95,889.717 1734.55,889.26 1740.15,888.8 1745.76,888.337 1751.36,887.872 1756.96,887.404 1762.57,886.934 1768.17,886.46 1773.77,885.983 1779.37,885.504 1784.98,885.021 1790.58,884.535 1796.18,884.045 1801.79,883.552 1807.39,883.056 1812.99,882.555 1818.6,882.051 1824.2,881.543 1829.8,881.031 1835.41,880.515 1841.01,879.995 1846.61,879.47 1852.21,878.941 1857.82,878.407 1863.42,877.869 1869.02,877.326 1874.63,876.778 1880.23,876.225 1885.83,875.665 1891.44,875.096 1897.04,874.527 1902.64,873.959 1908.25,873.39 1913.85,872.82 1919.45,872.249 1925.05,871.676 1930.66,871.101 1936.26,870.522 1941.86,869.94 1947.47,869.354 1953.07,868.764 1958.67,868.169 1964.28,867.568 1969.88,866.961 1975.48,866.347 1981.09,865.727 1986.69,865.098 1992.29,864.462 1997.89,863.817 2003.5,863.163 2009.1,862.499 2014.7,861.826 2020.31,861.141 2025.91,860.445 2031.51,859.738 2037.12,859.018 2042.72,858.285 2048.32,857.539 2053.93,856.78 2059.53,856.006 2065.13,855.217 2070.73,854.413 2076.34,853.593 2081.94,852.757 2087.54,851.903 2093.15,851.033 2098.75,850.144 2104.35,849.237 2109.96,848.311 2115.56,847.366 2121.16,846.4 2126.77,845.414 2132.37,844.407 2137.97,843.379 2143.57,842.328 2149.18,841.255 2154.78,840.159 2160.38,839.098 2165.99,838.032 2171.59,836.954 2177.19,835.862 2182.8,834.753 2188.4,833.625 2194,832.476 2199.61,831.303 2205.21,830.104 2210.81,828.878 2216.41,827.621 2222.02,826.331 2227.62,825.006 2233.22,823.644 2238.83,822.242 2244.43,820.799 2250.03,819.311 2255.64,817.776 2261.24,816.193 2266.84,814.558 2272.45,812.87 2278.05,811.126 2283.65,809.324 2289.25,807.462 2296.73,804.882 "/>
<polyline clip-path="url(#clip222)" style="stroke:#e7e5fa; stroke-linecap:round; stroke-linejoin:round; stroke-width:16; stroke-opacity:1; fill:none" points="429.034,160.055 434.637,340.36 440.24,507.374 445.843,604.963 451.446,660.694 457.05,694.982 462.653,718.915 468.256,738.03 473.859,754.845 479.462,770.339 485.065,784.837 490.668,798.435 496.271,811.149 501.874,823.01 507.477,834.044 513.08,844.278 518.683,853.755 524.286,862.51 529.889,870.586 535.493,878.026 541.096,884.866 546.699,891.143 552.302,896.897 557.905,902.166 563.508,906.991 569.111,911.393 574.714,915.406 580.317,919.058 585.92,922.376 591.523,925.389 597.126,928.123 602.729,930.598 608.332,932.828 613.936,934.835 619.539,936.635 625.142,938.244 630.745,939.68 636.348,940.957 641.951,942.094 647.554,943.093 653.157,943.968 658.76,944.728 664.363,945.383 669.966,945.94 675.569,946.408 681.172,946.794 686.776,947.107 692.379,947.355 697.982,947.547 703.585,947.677 709.188,947.757 714.791,947.791 720.394,947.781 725.997,947.73 731.6,947.643 737.203,947.522 742.806,947.371 748.409,947.194 754.012,946.992 759.615,946.77 765.219,946.532 770.822,946.275 776.425,946 782.028,945.712 787.631,945.41 793.234,945.097 798.837,944.773 804.44,944.439 810.043,944.095 815.646,943.744 821.249,943.386 826.852,943.022 832.455,942.653 838.058,942.28 843.662,941.904 849.265,941.526 854.868,941.147 860.471,940.765 866.074,940.38 871.677,939.995 877.28,939.608 882.883,939.22 888.486,938.831 894.089,938.442 899.692,938.052 905.295,937.663 910.898,937.273 916.502,936.883 922.105,936.494 927.708,936.105 933.311,935.717 938.914,935.329 944.517,934.943 950.12,934.558 955.723,934.174 961.326,933.792 966.929,933.411 972.532,933.032 978.135,932.654 983.738,932.276 989.341,931.9 994.945,931.524 1000.55,931.15 1006.15,930.777 1011.75,930.405 1017.36,930.034 1022.96,929.664 1028.56,929.295 1034.17,928.928 1039.77,928.561 1045.37,928.195 1050.98,927.83 1056.58,927.466 1062.18,927.103 1067.78,926.741 1073.39,926.38 1078.99,926.02 1084.59,925.661 1090.2,925.303 1095.8,924.945 1101.4,924.589 1107.01,924.233 1112.61,923.878 1118.21,923.524 1123.82,923.171 1129.42,922.819 1135.02,922.466 1140.62,922.115 1146.23,921.763 1151.83,921.412 1157.43,921.061 1163.04,920.711 1168.64,920.361 1174.24,920.011 1179.85,919.661 1185.45,919.311 1191.05,918.962 1196.66,918.613 1202.26,918.263 1207.86,917.914 1213.46,917.565 1219.07,917.216 1224.67,916.867 1230.27,916.518 1235.88,916.169 1241.48,915.82 1247.08,915.471 1252.69,915.121 1258.29,914.772 1263.89,914.422 1269.5,914.072 1275.1,913.722 1280.7,913.371 1286.3,913.02 1291.91,912.669 1297.51,912.318 1303.11,911.966 1308.72,911.613 1314.32,911.261 1319.92,910.907 1325.53,910.554 1331.13,910.2 1336.73,909.845 1342.34,909.488 1347.94,909.131 1353.54,908.774 1359.14,908.416 1364.75,908.057 1370.35,907.698 1375.95,907.338 1381.56,906.977 1387.16,906.615 1392.76,906.253 1398.37,905.889 1403.97,905.525 1409.57,905.16 1415.18,904.794 1420.78,904.427 1426.38,904.059 1431.98,903.689 1437.59,903.319 1443.19,902.947 1448.79,902.575 1454.4,902.2 1460,901.825 1465.6,901.448 1471.21,901.07 1476.81,900.69 1482.41,900.309 1488.01,899.927 1493.62,899.542 1499.22,899.157 1504.82,898.769 1510.43,898.38 1516.03,897.989 1521.63,897.596 1527.24,897.202 1532.84,896.806 1538.44,896.408 1544.05,896.007 1549.65,895.605 1555.25,895.201 1560.85,894.795 1566.46,894.387 1572.06,893.976 1577.66,893.564 1583.27,893.149 1588.87,892.732 1594.47,892.312 1600.08,891.891 1605.68,891.466 1611.28,891.04 1616.89,890.611 1622.49,890.178 1628.09,889.742 1633.69,889.305 1639.3,888.868 1644.9,888.428 1650.5,887.987 1656.11,887.545 1661.71,887.101 1667.31,886.654 1672.92,886.206 1678.52,885.755 1684.12,885.301 1689.73,884.845 1695.33,884.386 1700.93,883.924 1706.53,883.459 1712.14,882.991 1717.74,882.52 1723.34,882.044 1728.95,881.565 1734.55,881.082 1740.15,880.595 1745.76,880.104 1751.36,879.608 1756.96,879.108 1762.57,878.603 1768.17,878.094 1773.77,877.579 1779.37,877.059 1784.98,876.534 1790.58,876.003 1796.18,875.467 1801.79,874.925 1807.39,874.377 1812.99,873.822 1818.6,873.262 1824.2,872.695 1829.8,872.121 1835.41,871.541 1841.01,870.954 1846.61,870.36 1852.21,869.758 1857.82,869.15 1863.42,868.533 1869.02,867.909 1874.63,867.277 1880.23,866.637 1885.83,865.989 1891.44,865.333 1897.04,864.668 1902.64,863.994 1908.25,863.313 1913.85,862.633 1919.45,861.955 1925.05,861.277 1930.66,860.597 1936.26,859.915 1941.86,859.229 1947.47,858.539 1953.07,857.844 1958.67,857.141 1964.28,856.432 1969.88,855.713 1975.48,854.985 1981.09,854.246 1986.69,853.495 1992.29,852.731 1997.89,851.953 2003.5,851.161 2009.1,850.352 2014.7,849.525 2020.31,848.681 2025.91,847.817 2031.51,846.933 2037.12,846.028 2042.72,845.1 2048.32,844.149 2053.93,843.173 2059.53,842.171 2065.13,841.143 2070.73,840.087 2076.34,839.002 2081.94,837.887 2087.54,836.741 2093.15,835.564 2098.75,834.353 2104.35,833.108 2109.96,831.828 2115.56,830.512 2121.16,829.158 2126.77,827.766 2132.37,826.335 2137.97,824.887 2143.57,823.494 2149.18,822.078 2154.78,820.636 2160.38,819.164 2165.99,817.659 2171.59,816.117 2177.19,814.535 2182.8,812.91 2188.4,811.237 2194,809.514 2199.61,807.737 2205.21,805.903 2210.81,804.008 2216.41,802.048 2222.02,800.021 2227.62,797.922 2233.22,795.748 2238.83,793.496 2244.43,791.163 2250.03,788.744 2255.64,786.237 2261.24,783.637 2266.84,780.948 2272.45,778.17 2278.05,775.305 2283.65,772.353 2289.25,769.317 2296.73,765.138 "/>
<path clip-path="url(#clip220)" d="M1536.89 492.858 L2286.76 492.858 L2286.76 166.48 L1536.89 166.48  Z" fill="#ffffff" fill-rule="evenodd" fill-opacity="1"/>
<polyline clip-path="url(#clip220)" style="stroke:#000000; stroke-linecap:round; stroke-linejoin:round; stroke-width:4; stroke-opacity:1; fill:none" points="1536.89,492.858 2286.76,492.858 2286.76,166.48 1536.89,166.48 1536.89,492.858 "/>
<polyline clip-path="url(#clip220)" style="stroke:#2b194c; stroke-linecap:round; stroke-linejoin:round; stroke-width:20; stroke-opacity:1; fill:none" points="1558.89,231.755 1690.88,231.755 "/>
<g clip-path="url(#clip220)">
<text style="fill:#000000; fill-opacity:1; font-family:Bookman Old Style,Bookman,Georgia,serif; font-size:63px; text-anchor:start;" transform="rotate(0, 1712.87, 253.255)" x="1712.87" y="253.255">Glover fiducial u0</text>
</g>
<polyline clip-path="url(#clip220)" style="stroke:#3569ac; stroke-linecap:round; stroke-linejoin:round; stroke-width:20; stroke-opacity:1; fill:none" points="1558.89,297.031 1690.88,297.031 "/>
<g clip-path="url(#clip220)">
<text style="fill:#000000; fill-opacity:1; font-family:Bookman Old Style,Bookman,Georgia,serif; font-size:63px; text-anchor:start;" transform="rotate(0, 1712.87, 318.531)" x="1712.87" y="318.531">Glover neutral u0</text>
</g>
<polyline clip-path="url(#clip220)" style="stroke:#b9b3f0; stroke-linecap:round; stroke-linejoin:round; stroke-width:20; stroke-opacity:1; fill:none" points="1558.89,362.307 1690.88,362.307 "/>
<g clip-path="url(#clip220)">
<text style="fill:#000000; fill-opacity:1; font-family:Bookman Old Style,Bookman,Georgia,serif; font-size:63px; text-anchor:start;" transform="rotate(0, 1712.87, 383.807)" x="1712.87" y="383.807">Umist fiducial u0</text>
</g>
<polyline clip-path="url(#clip220)" style="stroke:#e7e5fa; stroke-linecap:round; stroke-linejoin:round; stroke-width:20; stroke-opacity:1; fill:none" points="1558.89,427.583 1690.88,427.583 "/>
<g clip-path="url(#clip220)">
<text style="fill:#000000; fill-opacity:1; font-family:Bookman Old Style,Bookman,Georgia,serif; font-size:63px; text-anchor:start;" transform="rotate(0, 1712.87, 449.083)" x="1712.87" y="449.083">Umist neutral u0</text>
</g>
</svg>
