<?xml version="1.0" encoding="utf-8"?>
<svg xmlns="http://www.w3.org/2000/svg" xmlns:xlink="http://www.w3.org/1999/xlink" width="600" height="400" viewBox="0 0 2400 1600">
<defs>
  <clipPath id="clip460">
    <rect x="0" y="0" width="2400" height="1600"/>
  </clipPath>
</defs>
<path clip-path="url(#clip460)" d="M0 1600 L2400 1600 L2400 0 L0 0  Z" fill="#ffffff" fill-rule="evenodd" fill-opacity="1"/>
<defs>
  <clipPath id="clip461">
    <rect x="480" y="0" width="1681" height="1600"/>
  </clipPath>
</defs>
<path clip-path="url(#clip460)" d="M373.003 1400.82 L2352.76 1400.82 L2352.76 123.916 L373.003 123.916  Z" fill="#ffffff" fill-rule="evenodd" fill-opacity="1"/>
<defs>
  <clipPath id="clip462">
    <rect x="373" y="123" width="1981" height="1278"/>
  </clipPath>
</defs>
<polyline clip-path="url(#clip462)" style="stroke:#000000; stroke-linecap:round; stroke-linejoin:round; stroke-width:2; stroke-opacity:0.1; fill:none" points="895.957,1400.82 895.957,123.916 "/>
<polyline clip-path="url(#clip462)" style="stroke:#000000; stroke-linecap:round; stroke-linejoin:round; stroke-width:2; stroke-opacity:0.1; fill:none" points="1362.88,1400.82 1362.88,123.916 "/>
<polyline clip-path="url(#clip462)" style="stroke:#000000; stroke-linecap:round; stroke-linejoin:round; stroke-width:2; stroke-opacity:0.1; fill:none" points="1829.8,1400.82 1829.8,123.916 "/>
<polyline clip-path="url(#clip462)" style="stroke:#000000; stroke-linecap:round; stroke-linejoin:round; stroke-width:2; stroke-opacity:0.1; fill:none" points="2296.73,1400.82 2296.73,123.916 "/>
<polyline clip-path="url(#clip462)" style="stroke:#000000; stroke-linecap:round; stroke-linejoin:round; stroke-width:2; stroke-opacity:0.1; fill:none" points="373.003,1364.75 2352.76,1364.75 "/>
<polyline clip-path="url(#clip462)" style="stroke:#000000; stroke-linecap:round; stroke-linejoin:round; stroke-width:2; stroke-opacity:0.1; fill:none" points="373.003,1028.1 2352.76,1028.1 "/>
<polyline clip-path="url(#clip462)" style="stroke:#000000; stroke-linecap:round; stroke-linejoin:round; stroke-width:2; stroke-opacity:0.1; fill:none" points="373.003,691.447 2352.76,691.447 "/>
<polyline clip-path="url(#clip462)" style="stroke:#000000; stroke-linecap:round; stroke-linejoin:round; stroke-width:2; stroke-opacity:0.1; fill:none" points="373.003,354.797 2352.76,354.797 "/>
<polyline clip-path="url(#clip460)" style="stroke:#000000; stroke-linecap:round; stroke-linejoin:round; stroke-width:4; stroke-opacity:1; fill:none" points="373.003,1400.82 2352.76,1400.82 "/>
<polyline clip-path="url(#clip460)" style="stroke:#000000; stroke-linecap:round; stroke-linejoin:round; stroke-width:4; stroke-opacity:1; fill:none" points="895.957,1400.82 895.957,1381.92 "/>
<polyline clip-path="url(#clip460)" style="stroke:#000000; stroke-linecap:round; stroke-linejoin:round; stroke-width:4; stroke-opacity:1; fill:none" points="1362.88,1400.82 1362.88,1381.92 "/>
<polyline clip-path="url(#clip460)" style="stroke:#000000; stroke-linecap:round; stroke-linejoin:round; stroke-width:4; stroke-opacity:1; fill:none" points="1829.8,1400.82 1829.8,1381.92 "/>
<polyline clip-path="url(#clip460)" style="stroke:#000000; stroke-linecap:round; stroke-linejoin:round; stroke-width:4; stroke-opacity:1; fill:none" points="2296.73,1400.82 2296.73,1381.92 "/>
<g clip-path="url(#clip460)">
<text style="fill:#000000; fill-opacity:1; font-family:Bookman Old Style,Bookman,Georgia,serif; font-size:63px; text-anchor:middle;" transform="rotate(0, 895.957, 1474.16)" x="895.957" y="1474.16">2.5e5</text>
</g>
<g clip-path="url(#clip460)">
<text style="fill:#000000; fill-opacity:1; font-family:Bookman Old Style,Bookman,Georgia,serif; font-size:63px; text-anchor:middle;" transform="rotate(0, 1362.88, 1474.16)" x="1362.88" y="1474.16">5e5</text>
</g>
<g clip-path="url(#clip460)">
<text style="fill:#000000; fill-opacity:1; font-family:Bookman Old Style,Bookman,Georgia,serif; font-size:63px; text-anchor:middle;" transform="rotate(0, 1829.8, 1474.16)" x="1829.8" y="1474.16">7.5e5</text>
</g>
<g clip-path="url(#clip460)">
<text style="fill:#000000; fill-opacity:1; font-family:Bookman Old Style,Bookman,Georgia,serif; font-size:63px; text-anchor:middle;" transform="rotate(0, 2296.73, 1474.16)" x="2296.73" y="1474.16">1e6</text>
</g>
<g clip-path="url(#clip460)">
<text style="fill:#000000; fill-opacity:1; font-family:Bookman Old Style,Bookman,Georgia,serif; font-size:90px; text-anchor:middle;" transform="rotate(0, 1362.88, 1581.28)" x="1362.88" y="1581.28">Time (Years)</text>
</g>
<polyline clip-path="url(#clip460)" style="stroke:#000000; stroke-linecap:round; stroke-linejoin:round; stroke-width:4; stroke-opacity:1; fill:none" points="373.003,1400.82 373.003,123.916 "/>
<polyline clip-path="url(#clip460)" style="stroke:#000000; stroke-linecap:round; stroke-linejoin:round; stroke-width:4; stroke-opacity:1; fill:none" points="373.003,1364.75 391.901,1364.75 "/>
<polyline clip-path="url(#clip460)" style="stroke:#000000; stroke-linecap:round; stroke-linejoin:round; stroke-width:4; stroke-opacity:1; fill:none" points="373.003,1028.1 391.901,1028.1 "/>
<polyline clip-path="url(#clip460)" style="stroke:#000000; stroke-linecap:round; stroke-linejoin:round; stroke-width:4; stroke-opacity:1; fill:none" points="373.003,691.447 391.901,691.447 "/>
<polyline clip-path="url(#clip460)" style="stroke:#000000; stroke-linecap:round; stroke-linejoin:round; stroke-width:4; stroke-opacity:1; fill:none" points="373.003,354.797 391.901,354.797 "/>
<g clip-path="url(#clip460)">
<text style="fill:#000000; fill-opacity:1; font-family:Bookman Old Style,Bookman,Georgia,serif; font-size:63px; text-anchor:middle;" transform="rotate(0, 287.523, 1386.25)" x="287.523" y="1386.25">0.0</text>
</g>
<g clip-path="url(#clip460)">
<text style="fill:#000000; fill-opacity:1; font-family:Bookman Old Style,Bookman,Georgia,serif; font-size:63px; text-anchor:middle;" transform="rotate(0, 262.149, 1049.6)" x="262.149" y="1049.6">5e-5</text>
</g>
<g clip-path="url(#clip460)">
<text style="fill:#000000; fill-opacity:1; font-family:Bookman Old Style,Bookman,Georgia,serif; font-size:63px; text-anchor:middle;" transform="rotate(0, 262.149, 712.947)" x="262.149" y="712.947">1e-4</text>
</g>
<g clip-path="url(#clip460)">
<text style="fill:#000000; fill-opacity:1; font-family:Bookman Old Style,Bookman,Georgia,serif; font-size:63px; text-anchor:middle;" transform="rotate(0, 232.334, 376.297)" x="232.334" y="376.297">1.5e-4</text>
</g>
<g clip-path="url(#clip460)">
<text style="fill:#000000; fill-opacity:1; font-family:Bookman Old Style,Bookman,Georgia,serif; font-size:90px; text-anchor:middle;" transform="rotate(-90, 73.4781, 762.367)" x="73.4781" y="762.367">Abundance per Hydrogen Molecule</text>
</g>
<g clip-path="url(#clip460)">
<text style="fill:#000000; fill-opacity:1; font-family:Bookman Old Style,Bookman,Georgia,serif; font-size:90px; text-anchor:middle;" transform="rotate(0, 1362.88, 73.2)" x="1362.88" y="73.2">Glover Vs. Umist: Oxygen</text>
</g>
<polyline clip-path="url(#clip462)" style="stroke:#191900; stroke-linecap:round; stroke-linejoin:round; stroke-width:16; stroke-opacity:1; fill:none" points="429.034,1364.68 434.637,1131.7 440.24,938.251 445.843,846.99 451.446,805.722 457.05,784.501 462.653,770.476 468.256,758.941 473.859,748.355 479.462,738.279 485.065,728.534 490.668,719.078 496.271,709.901 501.874,700.99 507.477,692.343 513.08,683.952 518.683,675.813 524.286,667.926 529.889,660.274 535.493,652.852 541.096,645.648 546.699,638.678 552.302,631.915 557.905,625.352 563.508,618.982 569.111,612.794 574.714,606.803 580.317,600.976 585.92,595.293 591.523,589.8 597.126,584.451 602.729,579.207 608.332,574.13 613.936,569.185 619.539,564.354 625.142,559.659 630.745,555.065 636.348,550.57 641.951,546.177 647.554,541.875 653.157,537.661 658.76,533.53 664.363,529.478 669.966,525.499 675.569,521.589 681.172,517.744 686.776,513.96 692.379,510.233 697.982,506.559 703.585,502.935 709.188,499.358 714.791,495.825 720.394,492.34 725.997,488.886 731.6,485.468 737.203,482.083 742.806,478.72 748.409,475.394 754.012,472.109 759.615,468.844 765.219,465.593 770.822,462.361 776.425,459.15 782.028,455.957 787.631,452.786 793.234,449.624 798.837,446.482 804.44,443.355 810.043,440.243 815.646,437.144 821.249,434.057 826.852,430.984 832.455,427.922 838.058,424.872 843.662,421.834 849.265,418.807 854.868,415.79 860.471,412.786 866.074,409.792 871.677,406.809 877.28,403.838 882.883,400.878 888.486,397.93 894.089,394.994 899.692,392.07 905.295,389.158 910.898,386.26 916.502,383.374 922.105,380.502 927.708,377.644 933.311,374.8 938.914,371.971 944.517,369.156 950.12,366.358 955.723,363.575 961.326,360.809 966.929,358.059 972.532,355.326 978.135,352.611 983.738,349.914 989.341,347.235 994.945,344.575 1000.55,341.934 1006.15,339.313 1011.75,336.711 1017.36,334.13 1022.96,331.568 1028.56,329.028 1034.17,326.509 1039.77,324.011 1045.37,321.534 1050.98,319.079 1056.58,316.646 1062.18,314.236 1067.78,311.847 1073.39,309.481 1078.99,307.138 1084.59,304.818 1090.2,302.521 1095.8,300.247 1101.4,297.996 1107.01,295.768 1112.61,293.564 1118.21,291.382 1123.82,289.224 1129.42,287.089 1135.02,284.978 1140.62,282.891 1146.23,280.829 1151.83,278.79 1157.43,276.772 1163.04,274.773 1168.64,272.792 1174.24,270.833 1179.85,268.902 1185.45,267.002 1191.05,265.127 1196.66,263.272 1202.26,261.439 1207.86,259.629 1213.46,257.842 1219.07,256.077 1224.67,254.334 1230.27,252.614 1235.88,250.915 1241.48,249.239 1247.08,247.583 1252.69,245.95 1258.29,244.338 1263.89,242.747 1269.5,241.178 1275.1,239.629 1280.7,238.101 1286.3,236.594 1291.91,235.107 1297.51,233.64 1303.11,232.194 1308.72,230.767 1314.32,229.361 1319.92,227.974 1325.53,226.607 1331.13,225.258 1336.73,223.929 1342.34,222.619 1347.94,221.328 1353.54,220.055 1359.14,218.801 1364.75,217.566 1370.35,216.348 1375.95,215.149 1381.56,213.967 1387.16,212.803 1392.76,211.656 1398.37,210.527 1403.97,209.414 1409.57,208.318 1415.18,207.239 1420.78,206.177 1426.38,205.131 1431.98,204.102 1437.59,203.09 1443.19,202.095 1448.79,201.117 1454.4,200.156 1460,199.211 1465.6,198.282 1471.21,197.369 1476.81,196.47 1482.41,195.584 1488.01,194.709 1493.62,193.84 1499.22,192.975 1504.82,192.135 1510.43,191.323 1516.03,190.521 1521.63,189.737 1527.24,188.962 1532.84,188.201 1538.44,187.456 1544.05,186.725 1549.65,186.009 1555.25,185.304 1560.85,184.613 1566.46,183.936 1572.06,183.271 1577.66,182.619 1583.27,181.98 1588.87,181.353 1594.47,180.739 1600.08,180.137 1605.68,179.547 1611.28,178.97 1616.89,178.404 1622.49,177.85 1628.09,177.308 1633.69,176.777 1639.3,176.258 1644.9,175.751 1650.5,175.254 1656.11,174.769 1661.71,174.295 1667.31,173.832 1672.92,173.379 1678.52,172.937 1684.12,172.506 1689.73,172.085 1695.33,171.675 1700.93,171.275 1706.53,170.885 1712.14,170.505 1717.74,170.134 1723.34,169.774 1728.95,169.423 1734.55,169.081 1740.15,168.749 1745.76,168.427 1751.36,168.113 1756.96,167.809 1762.57,167.513 1768.17,167.226 1773.77,166.948 1779.37,166.678 1784.98,166.416 1790.58,166.163 1796.18,165.918 1801.79,165.68 1807.39,165.451 1812.99,165.229 1818.6,165.014 1824.2,164.807 1829.8,164.608 1835.41,164.415 1841.01,164.229 1846.61,164.05 1852.21,163.878 1857.82,163.712 1863.42,163.553 1869.02,163.399 1874.63,163.252 1880.23,163.11 1885.83,162.974 1891.44,162.843 1897.04,162.718 1902.64,162.597 1908.25,162.482 1913.85,162.372 1919.45,162.266 1925.05,162.165 1930.66,162.069 1936.26,161.977 1941.86,161.889 1947.47,161.806 1953.07,161.726 1958.67,161.65 1964.28,161.577 1969.88,161.508 1975.48,161.443 1981.09,161.38 1986.69,161.321 1992.29,161.264 1997.89,161.21 2003.5,161.159 2009.1,161.11 2014.7,161.063 2020.31,161.018 2025.91,160.974 2031.51,160.933 2037.12,160.893 2042.72,160.857 2048.32,160.824 2053.93,160.794 2059.53,160.767 2065.13,160.743 2070.73,160.723 2076.34,160.698 2081.94,160.674 2087.54,160.648 2093.15,160.62 2098.75,160.589 2104.35,160.555 2109.96,160.524 2115.56,160.502 2121.16,160.487 2126.77,160.482 2132.37,160.489 2137.97,160.496 2143.57,160.482 2149.18,160.468 2154.78,160.455 2160.38,160.443 2165.99,160.432 2171.59,160.422 2177.19,160.412 2182.8,160.403 2188.4,160.394 2194,160.385 2199.61,160.378 2205.21,160.37 2210.81,160.363 2216.41,160.357 2222.02,160.351 2227.62,160.345 2233.22,160.339 2238.83,160.334 2244.43,160.329 2250.03,160.325 2255.64,160.321 2261.24,160.317 2266.84,160.313 2272.45,160.31 2278.05,160.306 2283.65,160.303 2289.25,160.3 2296.73,160.297 "/>
<polyline clip-path="url(#clip462)" style="stroke:#8e3f3c; stroke-linecap:round; stroke-linejoin:round; stroke-width:16; stroke-opacity:1; fill:none" points="429.034,698.052 434.637,522.454 440.24,406.755 445.843,375.194 451.446,367.577 457.05,364.27 462.653,361.69 468.256,359.503 473.859,357.436 479.462,355.68 485.065,354.04 490.668,352.533 496.271,351.197 501.874,350.018 507.477,348.98 513.08,348.078 518.683,347.301 524.286,346.63 529.889,346.031 535.493,345.245 541.096,344.759 546.699,344.561 552.302,344.318 557.905,344.09 563.508,343.915 569.111,343.727 574.714,343.507 580.317,343.463 585.92,343.54 591.523,343.535 597.126,343.462 602.729,343.411 608.332,343.394 613.936,343.373 619.539,343.333 625.142,343.264 630.745,343.177 636.348,343.077 641.951,342.971 647.554,342.833 653.157,342.732 658.76,342.393 664.363,342.018 669.966,341.713 675.569,341.493 681.172,341.319 686.776,341.043 692.379,340.697 697.982,340.307 703.585,339.933 709.188,339.583 714.791,339.111 720.394,338.533 725.997,337.923 731.6,337.299 737.203,336.69 742.806,335.996 748.409,335.277 754.012,334.575 759.615,333.693 765.219,332.804 770.822,332.01 776.425,331.043 782.028,330.353 787.631,329.419 793.234,328.472 798.837,327.488 804.44,326.474 810.043,325.43 815.646,324.356 821.249,323.254 826.852,322.125 832.455,320.969 838.058,319.787 843.662,318.581 849.265,317.35 854.868,316.097 860.471,314.822 866.074,313.526 871.677,312.209 877.28,310.874 882.883,309.52 888.486,308.149 894.089,306.762 899.692,305.359 905.295,303.943 910.898,302.512 916.502,301.069 922.105,299.615 927.708,298.15 933.311,296.676 938.914,295.192 944.517,293.701 950.12,292.203 955.723,290.699 961.326,289.189 966.929,287.674 972.532,286.156 978.135,284.634 983.738,283.111 989.341,281.587 994.945,280.064 1000.55,278.542 1006.15,277.021 1011.75,275.5 1017.36,273.979 1022.96,272.456 1028.56,270.936 1034.17,269.417 1039.77,267.902 1045.37,266.396 1050.98,264.9 1056.58,263.417 1062.18,261.951 1067.78,260.498 1073.39,259.053 1078.99,257.61 1084.59,256.15 1090.2,254.653 1095.8,253.093 1101.4,251.606 1107.01,250.203 1112.61,248.789 1118.21,247.391 1123.82,246.004 1129.42,244.628 1135.02,243.262 1140.62,241.906 1146.23,240.561 1151.83,239.227 1157.43,237.904 1163.04,236.593 1168.64,235.294 1174.24,234.006 1179.85,232.73 1185.45,231.466 1191.05,230.214 1196.66,228.975 1202.26,227.748 1207.86,226.533 1213.46,225.331 1219.07,224.141 1224.67,222.963 1230.27,221.796 1235.88,220.641 1241.48,219.5 1247.08,218.374 1252.69,217.264 1258.29,216.169 1263.89,215.086 1269.5,214.014 1275.1,212.95 1280.7,211.892 1286.3,210.837 1291.91,209.785 1297.51,208.747 1303.11,207.736 1308.72,206.76 1314.32,205.826 1319.92,204.929 1325.53,203.972 1331.13,203.034 1336.73,202.108 1342.34,201.194 1347.94,200.293 1353.54,199.405 1359.14,198.528 1364.75,197.664 1370.35,196.812 1375.95,195.972 1381.56,195.144 1387.16,194.329 1392.76,193.525 1398.37,192.733 1403.97,191.953 1409.57,191.184 1415.18,190.428 1420.78,189.683 1426.38,188.95 1431.98,188.228 1437.59,187.518 1443.19,186.82 1448.79,186.133 1454.4,185.457 1460,184.792 1465.6,184.139 1471.21,183.497 1476.81,182.866 1482.41,182.245 1488.01,181.636 1493.62,181.038 1499.22,180.45 1504.82,179.874 1510.43,179.308 1516.03,178.753 1521.63,178.208 1527.24,177.674 1532.84,177.151 1538.44,176.638 1544.05,176.135 1549.65,175.643 1555.25,175.16 1560.85,174.688 1566.46,174.226 1572.06,173.773 1577.66,173.331 1583.27,172.897 1588.87,172.474 1594.47,172.06 1600.08,171.656 1605.68,171.262 1611.28,170.877 1616.89,170.502 1622.49,170.135 1628.09,169.778 1633.69,169.43 1639.3,169.091 1644.9,168.76 1650.5,168.438 1656.11,168.124 1661.71,167.818 1667.31,167.521 1672.92,167.232 1678.52,166.952 1684.12,166.68 1689.73,166.418 1695.33,166.163 1700.93,165.917 1706.53,165.68 1712.14,165.452 1717.74,165.231 1723.34,165.017 1728.95,164.81 1734.55,164.607 1740.15,164.41 1745.76,164.218 1751.36,164.031 1756.96,163.846 1762.57,163.665 1768.17,163.488 1773.77,163.326 1779.37,163.176 1784.98,163.032 1790.58,162.893 1796.18,162.76 1801.79,162.631 1807.39,162.508 1812.99,162.39 1818.6,162.276 1824.2,162.168 1829.8,162.064 1835.41,161.964 1841.01,161.869 1846.61,161.777 1852.21,161.69 1857.82,161.607 1863.42,161.528 1869.02,161.452 1874.63,161.38 1880.23,161.311 1885.83,161.245 1891.44,161.182 1897.04,161.123 1902.64,161.066 1908.25,161.012 1913.85,160.961 1919.45,160.912 1925.05,160.865 1930.66,160.821 1936.26,160.779 1941.86,160.74 1947.47,160.702 1953.07,160.666 1958.67,160.632 1964.28,160.6 1969.88,160.569 1975.48,160.541 1981.09,160.513 1986.69,160.487 1992.29,160.463 1997.89,160.439 2003.5,160.417 2009.1,160.396 2014.7,160.377 2020.31,160.358 2025.91,160.34 2031.51,160.323 2037.12,160.308 2042.72,160.293 2048.32,160.279 2053.93,160.265 2059.53,160.252 2065.13,160.241 2070.73,160.229 2076.34,160.218 2081.94,160.208 2087.54,160.199 2093.15,160.19 2098.75,160.181 2104.35,160.173 2109.96,160.166 2115.56,160.158 2121.16,160.152 2126.77,160.145 2132.37,160.139 2137.97,160.133 2143.57,160.128 2149.18,160.123 2154.78,160.118 2160.38,160.113 2165.99,160.109 2171.59,160.105 2177.19,160.101 2182.8,160.097 2188.4,160.094 2194,160.091 2199.61,160.088 2205.21,160.085 2210.81,160.082 2216.41,160.079 2222.02,160.077 2227.62,160.075 2233.22,160.073 2238.83,160.07 2244.43,160.069 2250.03,160.067 2255.64,160.065 2261.24,160.063 2266.84,160.062 2272.45,160.06 2278.05,160.059 2283.65,160.058 2289.25,160.056 2296.73,160.055 "/>
<polyline clip-path="url(#clip462)" style="stroke:#e69351; stroke-linecap:round; stroke-linejoin:round; stroke-width:16; stroke-opacity:1; fill:none" points="429.034,1364.68 434.637,1283.95 440.24,1164.43 445.843,1057.47 451.446,971.331 457.05,905.36 462.653,856.329 468.256,820.299 473.859,793.596 479.462,773.249 485.065,757.057 490.668,743.537 496.271,731.677 501.874,720.884 507.477,710.769 513.08,701.12 518.683,691.819 524.286,682.789 529.889,674 535.493,665.432 541.096,657.066 546.699,648.901 552.302,640.93 557.905,633.147 563.508,625.545 569.111,618.124 574.714,610.882 580.317,603.814 585.92,596.916 591.523,590.183 597.126,583.612 602.729,577.203 608.332,570.953 613.936,564.859 619.539,558.915 625.142,553.119 630.745,547.467 636.348,541.955 641.951,536.582 647.554,531.345 653.157,526.243 658.76,521.27 664.363,516.423 669.966,511.701 675.569,507.098 681.172,502.613 686.776,498.242 692.379,493.981 697.982,489.831 703.585,485.788 709.188,481.85 714.791,478.013 720.394,474.276 725.997,470.635 731.6,467.088 737.203,463.633 742.806,460.267 748.409,456.988 754.012,453.792 759.615,450.678 765.219,447.646 770.822,444.692 776.425,441.815 782.028,439.012 787.631,436.282 793.234,433.624 798.837,431.034 804.44,428.511 810.043,426.054 815.646,423.661 821.249,421.329 826.852,419.057 832.455,416.844 838.058,414.687 843.662,412.585 849.265,410.539 854.868,408.546 860.471,406.604 866.074,404.712 871.677,402.869 877.28,401.074 882.883,399.326 888.486,397.623 894.089,395.965 899.692,394.349 905.295,392.776 910.898,391.243 916.502,389.75 922.105,388.294 927.708,386.876 933.311,385.494 938.914,384.147 944.517,382.834 950.12,381.557 955.723,380.312 961.326,379.099 966.929,377.917 972.532,376.765 978.135,375.644 983.738,374.551 989.341,373.487 994.945,372.45 1000.55,371.441 1006.15,370.457 1011.75,369.499 1017.36,368.566 1022.96,367.656 1028.56,366.77 1034.17,365.907 1039.77,365.066 1045.37,364.246 1050.98,363.446 1056.58,362.666 1062.18,361.905 1067.78,361.165 1073.39,360.445 1078.99,359.742 1084.59,359.058 1090.2,358.391 1095.8,357.74 1101.4,357.107 1107.01,356.49 1112.61,355.888 1118.21,355.302 1123.82,354.732 1129.42,354.175 1135.02,353.634 1140.62,353.106 1146.23,352.592 1151.83,352.091 1157.43,351.603 1163.04,351.127 1168.64,350.664 1174.24,350.212 1179.85,349.771 1185.45,349.342 1191.05,348.923 1196.66,348.514 1202.26,348.115 1207.86,347.725 1213.46,347.346 1219.07,346.977 1224.67,346.618 1230.27,346.267 1235.88,345.925 1241.48,345.591 1247.08,345.266 1252.69,344.949 1258.29,344.64 1263.89,344.339 1269.5,344.045 1275.1,343.759 1280.7,343.48 1286.3,343.209 1291.91,342.944 1297.51,342.686 1303.11,342.434 1308.72,342.189 1314.32,341.95 1319.92,341.717 1325.53,341.49 1331.13,341.268 1336.73,341.052 1342.34,340.842 1347.94,340.636 1353.54,340.436 1359.14,340.24 1364.75,340.049 1370.35,339.862 1375.95,339.68 1381.56,339.501 1387.16,339.327 1392.76,339.157 1398.37,338.992 1403.97,338.832 1409.57,338.675 1415.18,338.521 1420.78,338.371 1426.38,338.225 1431.98,338.082 1437.59,337.943 1443.19,337.807 1448.79,337.674 1454.4,337.545 1460,337.419 1465.6,337.295 1471.21,337.175 1476.81,337.058 1482.41,336.943 1488.01,336.832 1493.62,336.723 1499.22,336.617 1504.82,336.513 1510.43,336.412 1516.03,336.313 1521.63,336.217 1527.24,336.123 1532.84,336.031 1538.44,335.942 1544.05,335.854 1549.65,335.769 1555.25,335.686 1560.85,335.604 1566.46,335.524 1572.06,335.446 1577.66,335.37 1583.27,335.296 1588.87,335.223 1594.47,335.151 1600.08,335.081 1605.68,335.012 1611.28,334.945 1616.89,334.879 1622.49,334.816 1628.09,334.754 1633.69,334.693 1639.3,334.634 1644.9,334.576 1650.5,334.519 1656.11,334.463 1661.71,334.409 1667.31,334.356 1672.92,334.303 1678.52,334.253 1684.12,334.203 1689.73,334.154 1695.33,334.106 1700.93,334.06 1706.53,334.014 1712.14,333.97 1717.74,333.926 1723.34,333.884 1728.95,333.842 1734.55,333.802 1740.15,333.762 1745.76,333.724 1751.36,333.686 1756.96,333.649 1762.57,333.613 1768.17,333.578 1773.77,333.543 1779.37,333.51 1784.98,333.477 1790.58,333.445 1796.18,333.413 1801.79,333.383 1807.39,333.353 1812.99,333.324 1818.6,333.295 1824.2,333.267 1829.8,333.24 1835.41,333.213 1841.01,333.187 1846.61,333.161 1852.21,333.136 1857.82,333.112 1863.42,333.088 1869.02,333.064 1874.63,333.041 1880.23,333.018 1885.83,332.997 1891.44,332.977 1897.04,332.958 1902.64,332.939 1908.25,332.92 1913.85,332.902 1919.45,332.884 1925.05,332.866 1930.66,332.849 1936.26,332.832 1941.86,332.815 1947.47,332.799 1953.07,332.783 1958.67,332.768 1964.28,332.753 1969.88,332.738 1975.48,332.725 1981.09,332.711 1986.69,332.698 1992.29,332.686 1997.89,332.674 2003.5,332.663 2009.1,332.652 2014.7,332.642 2020.31,332.633 2025.91,332.624 2031.51,332.616 2037.12,332.608 2042.72,332.601 2048.32,332.595 2053.93,332.59 2059.53,332.585 2065.13,332.581 2070.73,332.578 2076.34,332.576 2081.94,332.574 2087.54,332.573 2093.15,332.573 2098.75,332.574 2104.35,332.576 2109.96,332.578 2115.56,332.581 2121.16,332.586 2126.77,332.591 2132.37,332.597 2137.97,332.604 2143.57,332.612 2149.18,332.621 2154.78,332.631 2160.38,332.643 2165.99,332.655 2171.59,332.667 2177.19,332.679 2182.8,332.691 2188.4,332.704 2194,332.718 2199.61,332.733 2205.21,332.749 2210.81,332.767 2216.41,332.787 2222.02,332.81 2227.62,332.834 2233.22,332.862 2238.83,332.892 2244.43,332.925 2250.03,332.962 2255.64,333.003 2261.24,333.047 2266.84,333.095 2272.45,333.148 2278.05,333.206 2283.65,333.268 2289.25,333.336 2296.73,333.434 "/>
<polyline clip-path="url(#clip462)" style="stroke:#f7de7b; stroke-linecap:round; stroke-linejoin:round; stroke-width:16; stroke-opacity:1; fill:none" points="429.034,698.052 434.637,651.669 440.24,574.923 445.843,514.977 451.446,477.484 457.05,456.422 462.653,444.982 468.256,438.353 473.859,433.801 479.462,430.048 485.065,426.606 490.668,423.316 496.271,420.146 501.874,417.092 507.477,414.156 513.08,411.333 518.683,408.629 524.286,406.037 529.889,403.554 535.493,401.172 541.096,398.892 546.699,396.708 552.302,394.615 557.905,392.608 563.508,390.683 569.111,388.836 574.714,387.065 580.317,385.364 585.92,383.73 591.523,382.16 597.126,380.65 602.729,379.197 608.332,377.799 613.936,376.453 619.539,375.158 625.142,373.909 630.745,372.706 636.348,371.545 641.951,370.425 647.554,369.343 653.157,368.299 658.76,367.291 664.363,366.317 669.966,365.375 675.569,364.465 681.172,363.585 686.776,362.733 692.379,361.908 697.982,361.109 703.585,360.336 709.188,359.586 714.791,358.86 720.394,358.157 725.997,357.474 731.6,356.813 737.203,356.172 742.806,355.55 748.409,354.947 754.012,354.362 759.615,353.793 765.219,353.24 770.822,352.704 776.425,352.183 782.028,351.677 787.631,351.186 793.234,350.708 798.837,350.244 804.44,349.793 810.043,349.355 815.646,348.929 821.249,348.515 826.852,348.113 832.455,347.721 838.058,347.341 843.662,346.97 849.265,346.609 854.868,346.258 860.471,345.917 866.074,345.585 871.677,345.261 877.28,344.946 882.883,344.64 888.486,344.342 894.089,344.052 899.692,343.769 905.295,343.494 910.898,343.226 916.502,342.966 922.105,342.712 927.708,342.465 933.311,342.225 938.914,341.99 944.517,341.762 950.12,341.54 955.723,341.323 961.326,341.112 966.929,340.905 972.532,340.704 978.135,340.509 983.738,340.318 989.341,340.133 994.945,339.952 1000.55,339.775 1006.15,339.603 1011.75,339.435 1017.36,339.272 1022.96,339.112 1028.56,338.957 1034.17,338.805 1039.77,338.658 1045.37,338.514 1050.98,338.374 1056.58,338.237 1062.18,338.104 1067.78,337.974 1073.39,337.847 1078.99,337.723 1084.59,337.603 1090.2,337.485 1095.8,337.37 1101.4,337.258 1107.01,337.148 1112.61,337.041 1118.21,336.937 1123.82,336.835 1129.42,336.735 1135.02,336.638 1140.62,336.543 1146.23,336.45 1151.83,336.36 1157.43,336.272 1163.04,336.185 1168.64,336.101 1174.24,336.018 1179.85,335.938 1185.45,335.859 1191.05,335.782 1196.66,335.707 1202.26,335.634 1207.86,335.563 1213.46,335.493 1219.07,335.425 1224.67,335.358 1230.27,335.293 1235.88,335.229 1241.48,335.167 1247.08,335.106 1252.69,335.047 1258.29,334.989 1263.89,334.932 1269.5,334.877 1275.1,334.822 1280.7,334.769 1286.3,334.717 1291.91,334.666 1297.51,334.617 1303.11,334.568 1308.72,334.52 1314.32,334.473 1319.92,334.427 1325.53,334.382 1331.13,334.338 1336.73,334.294 1342.34,334.252 1347.94,334.211 1353.54,334.17 1359.14,334.131 1364.75,334.092 1370.35,334.053 1375.95,334.016 1381.56,333.979 1387.16,333.943 1392.76,333.908 1398.37,333.873 1403.97,333.839 1409.57,333.805 1415.18,333.773 1420.78,333.741 1426.38,333.709 1431.98,333.678 1437.59,333.648 1443.19,333.618 1448.79,333.589 1454.4,333.56 1460,333.532 1465.6,333.505 1471.21,333.478 1476.81,333.451 1482.41,333.425 1488.01,333.4 1493.62,333.375 1499.22,333.35 1504.82,333.326 1510.43,333.302 1516.03,333.279 1521.63,333.256 1527.24,333.234 1532.84,333.212 1538.44,333.19 1544.05,333.169 1549.65,333.148 1555.25,333.127 1560.85,333.107 1566.46,333.087 1572.06,333.068 1577.66,333.048 1583.27,333.029 1588.87,333.011 1594.47,332.992 1600.08,332.974 1605.68,332.956 1611.28,332.938 1616.89,332.92 1622.49,332.903 1628.09,332.887 1633.69,332.871 1639.3,332.855 1644.9,332.839 1650.5,332.824 1656.11,332.808 1661.71,332.793 1667.31,332.778 1672.92,332.764 1678.52,332.749 1684.12,332.735 1689.73,332.721 1695.33,332.708 1700.93,332.694 1706.53,332.681 1712.14,332.668 1717.74,332.655 1723.34,332.642 1728.95,332.63 1734.55,332.618 1740.15,332.606 1745.76,332.594 1751.36,332.583 1756.96,332.572 1762.57,332.561 1768.17,332.55 1773.77,332.54 1779.37,332.53 1784.98,332.52 1790.58,332.51 1796.18,332.501 1801.79,332.492 1807.39,332.483 1812.99,332.474 1818.6,332.466 1824.2,332.458 1829.8,332.45 1835.41,332.442 1841.01,332.435 1846.61,332.428 1852.21,332.421 1857.82,332.415 1863.42,332.408 1869.02,332.402 1874.63,332.397 1880.23,332.391 1885.83,332.386 1891.44,332.381 1897.04,332.377 1902.64,332.373 1908.25,332.372 1913.85,332.37 1919.45,332.368 1925.05,332.366 1930.66,332.364 1936.26,332.361 1941.86,332.359 1947.47,332.357 1953.07,332.355 1958.67,332.353 1964.28,332.351 1969.88,332.35 1975.48,332.349 1981.09,332.349 1986.69,332.349 1992.29,332.349 1997.89,332.35 2003.5,332.352 2009.1,332.354 2014.7,332.358 2020.31,332.362 2025.91,332.367 2031.51,332.373 2037.12,332.38 2042.72,332.388 2048.32,332.397 2053.93,332.407 2059.53,332.419 2065.13,332.432 2070.73,332.446 2076.34,332.462 2081.94,332.479 2087.54,332.498 2093.15,332.518 2098.75,332.54 2104.35,332.564 2109.96,332.59 2115.56,332.617 2121.16,332.647 2126.77,332.678 2132.37,332.711 2137.97,332.747 2143.57,332.782 2149.18,332.817 2154.78,332.852 2160.38,332.888 2165.99,332.925 2171.59,332.963 2177.19,333.004 2182.8,333.048 2188.4,333.096 2194,333.147 2199.61,333.203 2205.21,333.265 2210.81,333.332 2216.41,333.406 2222.02,333.487 2227.62,333.575 2233.22,333.672 2238.83,333.777 2244.43,333.892 2250.03,334.017 2255.64,334.153 2261.24,334.293 2266.84,334.437 2272.45,334.59 2278.05,334.756 2283.65,334.934 2289.25,335.125 2296.73,335.403 "/>
<path clip-path="url(#clip460)" d="M1536.89 1358.26 L2286.76 1358.26 L2286.76 1031.88 L1536.89 1031.88  Z" fill="#ffffff" fill-rule="evenodd" fill-opacity="1"/>
<polyline clip-path="url(#clip460)" style="stroke:#000000; stroke-linecap:round; stroke-linejoin:round; stroke-width:4; stroke-opacity:1; fill:none" points="1536.89,1358.26 2286.76,1358.26 2286.76,1031.88 1536.89,1031.88 1536.89,1358.26 "/>
<polyline clip-path="url(#clip460)" style="stroke:#191900; stroke-linecap:round; stroke-linejoin:round; stroke-width:20; stroke-opacity:1; fill:none" points="1558.89,1097.15 1690.88,1097.15 "/>
<g clip-path="url(#clip460)">
<text style="fill:#000000; fill-opacity:1; font-family:Bookman Old Style,Bookman,Georgia,serif; font-size:63px; text-anchor:start;" transform="rotate(0, 1712.87, 1118.65)" x="1712.87" y="1118.65">Glover fiducial u0</text>
</g>
<polyline clip-path="url(#clip460)" style="stroke:#8e3f3c; stroke-linecap:round; stroke-linejoin:round; stroke-width:20; stroke-opacity:1; fill:none" points="1558.89,1162.43 1690.88,1162.43 "/>
<g clip-path="url(#clip460)">
<text style="fill:#000000; fill-opacity:1; font-family:Bookman Old Style,Bookman,Georgia,serif; font-size:63px; text-anchor:start;" transform="rotate(0, 1712.87, 1183.93)" x="1712.87" y="1183.93">Glover neutral u0</text>
</g>
<polyline clip-path="url(#clip460)" style="stroke:#e69351; stroke-linecap:round; stroke-linejoin:round; stroke-width:20; stroke-opacity:1; fill:none" points="1558.89,1227.7 1690.88,1227.7 "/>
<g clip-path="url(#clip460)">
<text style="fill:#000000; fill-opacity:1; font-family:Bookman Old Style,Bookman,Georgia,serif; font-size:63px; text-anchor:start;" transform="rotate(0, 1712.87, 1249.2)" x="1712.87" y="1249.2">Umist fiducial u0</text>
</g>
<polyline clip-path="url(#clip460)" style="stroke:#f7de7b; stroke-linecap:round; stroke-linejoin:round; stroke-width:20; stroke-opacity:1; fill:none" points="1558.89,1292.98 1690.88,1292.98 "/>
<g clip-path="url(#clip460)">
<text style="fill:#000000; fill-opacity:1; font-family:Bookman Old Style,Bookman,Georgia,serif; font-size:63px; text-anchor:start;" transform="rotate(0, 1712.87, 1314.48)" x="1712.87" y="1314.48">Umist neutral u0</text>
</g>
</svg>
