<?xml version="1.0" encoding="utf-8"?>
<svg xmlns="http://www.w3.org/2000/svg" xmlns:xlink="http://www.w3.org/1999/xlink" width="600" height="400" viewBox="0 0 2400 1600">
<defs>
  <clipPath id="clip580">
    <rect x="0" y="0" width="2400" height="1600"/>
  </clipPath>
</defs>
<path clip-path="url(#clip580)" d="M0 1600 L2400 1600 L2400 0 L0 0  Z" fill="#ffffff" fill-rule="evenodd" fill-opacity="1"/>
<defs>
  <clipPath id="clip581">
    <rect x="480" y="0" width="1681" height="1600"/>
  </clipPath>
</defs>
<path clip-path="url(#clip580)" d="M373.003 1400.82 L2352.76 1400.82 L2352.76 123.916 L373.003 123.916  Z" fill="#ffffff" fill-rule="evenodd" fill-opacity="1"/>
<defs>
  <clipPath id="clip582">
    <rect x="373" y="123" width="1981" height="1278"/>
  </clipPath>
</defs>
<polyline clip-path="url(#clip582)" style="stroke:#000000; stroke-linecap:round; stroke-linejoin:round; stroke-width:2; stroke-opacity:0.1; fill:none" points="895.957,1400.82 895.957,123.916 "/>
<polyline clip-path="url(#clip582)" style="stroke:#000000; stroke-linecap:round; stroke-linejoin:round; stroke-width:2; stroke-opacity:0.1; fill:none" points="1362.88,1400.82 1362.88,123.916 "/>
<polyline clip-path="url(#clip582)" style="stroke:#000000; stroke-linecap:round; stroke-linejoin:round; stroke-width:2; stroke-opacity:0.1; fill:none" points="1829.8,1400.82 1829.8,123.916 "/>
<polyline clip-path="url(#clip582)" style="stroke:#000000; stroke-linecap:round; stroke-linejoin:round; stroke-width:2; stroke-opacity:0.1; fill:none" points="2296.73,1400.82 2296.73,123.916 "/>
<polyline clip-path="url(#clip582)" style="stroke:#000000; stroke-linecap:round; stroke-linejoin:round; stroke-width:2; stroke-opacity:0.1; fill:none" points="373.003,1364.75 2352.76,1364.75 "/>
<polyline clip-path="url(#clip582)" style="stroke:#000000; stroke-linecap:round; stroke-linejoin:round; stroke-width:2; stroke-opacity:0.1; fill:none" points="373.003,1027.69 2352.76,1027.69 "/>
<polyline clip-path="url(#clip582)" style="stroke:#000000; stroke-linecap:round; stroke-linejoin:round; stroke-width:2; stroke-opacity:0.1; fill:none" points="373.003,690.634 2352.76,690.634 "/>
<polyline clip-path="url(#clip582)" style="stroke:#000000; stroke-linecap:round; stroke-linejoin:round; stroke-width:2; stroke-opacity:0.1; fill:none" points="373.003,353.577 2352.76,353.577 "/>
<polyline clip-path="url(#clip580)" style="stroke:#000000; stroke-linecap:round; stroke-linejoin:round; stroke-width:4; stroke-opacity:1; fill:none" points="373.003,1400.82 2352.76,1400.82 "/>
<polyline clip-path="url(#clip580)" style="stroke:#000000; stroke-linecap:round; stroke-linejoin:round; stroke-width:4; stroke-opacity:1; fill:none" points="895.957,1400.82 895.957,1381.92 "/>
<polyline clip-path="url(#clip580)" style="stroke:#000000; stroke-linecap:round; stroke-linejoin:round; stroke-width:4; stroke-opacity:1; fill:none" points="1362.88,1400.82 1362.88,1381.92 "/>
<polyline clip-path="url(#clip580)" style="stroke:#000000; stroke-linecap:round; stroke-linejoin:round; stroke-width:4; stroke-opacity:1; fill:none" points="1829.8,1400.82 1829.8,1381.92 "/>
<polyline clip-path="url(#clip580)" style="stroke:#000000; stroke-linecap:round; stroke-linejoin:round; stroke-width:4; stroke-opacity:1; fill:none" points="2296.73,1400.82 2296.73,1381.92 "/>
<g clip-path="url(#clip580)">
<text style="fill:#000000; fill-opacity:1; font-family:Bookman Old Style,Bookman,Georgia,serif; font-size:63px; text-anchor:middle;" transform="rotate(0, 895.957, 1474.16)" x="895.957" y="1474.16">2.5e5</text>
</g>
<g clip-path="url(#clip580)">
<text style="fill:#000000; fill-opacity:1; font-family:Bookman Old Style,Bookman,Georgia,serif; font-size:63px; text-anchor:middle;" transform="rotate(0, 1362.88, 1474.16)" x="1362.88" y="1474.16">5e5</text>
</g>
<g clip-path="url(#clip580)">
<text style="fill:#000000; fill-opacity:1; font-family:Bookman Old Style,Bookman,Georgia,serif; font-size:63px; text-anchor:middle;" transform="rotate(0, 1829.8, 1474.16)" x="1829.8" y="1474.16">7.5e5</text>
</g>
<g clip-path="url(#clip580)">
<text style="fill:#000000; fill-opacity:1; font-family:Bookman Old Style,Bookman,Georgia,serif; font-size:63px; text-anchor:middle;" transform="rotate(0, 2296.73, 1474.16)" x="2296.73" y="1474.16">1e6</text>
</g>
<g clip-path="url(#clip580)">
<text style="fill:#000000; fill-opacity:1; font-family:Bookman Old Style,Bookman,Georgia,serif; font-size:90px; text-anchor:middle;" transform="rotate(0, 1362.88, 1581.28)" x="1362.88" y="1581.28">Time (Years)</text>
</g>
<polyline clip-path="url(#clip580)" style="stroke:#000000; stroke-linecap:round; stroke-linejoin:round; stroke-width:4; stroke-opacity:1; fill:none" points="373.003,1400.82 373.003,123.916 "/>
<polyline clip-path="url(#clip580)" style="stroke:#000000; stroke-linecap:round; stroke-linejoin:round; stroke-width:4; stroke-opacity:1; fill:none" points="373.003,1364.75 391.901,1364.75 "/>
<polyline clip-path="url(#clip580)" style="stroke:#000000; stroke-linecap:round; stroke-linejoin:round; stroke-width:4; stroke-opacity:1; fill:none" points="373.003,1027.69 391.901,1027.69 "/>
<polyline clip-path="url(#clip580)" style="stroke:#000000; stroke-linecap:round; stroke-linejoin:round; stroke-width:4; stroke-opacity:1; fill:none" points="373.003,690.634 391.901,690.634 "/>
<polyline clip-path="url(#clip580)" style="stroke:#000000; stroke-linecap:round; stroke-linejoin:round; stroke-width:4; stroke-opacity:1; fill:none" points="373.003,353.577 391.901,353.577 "/>
<g clip-path="url(#clip580)">
<text style="fill:#000000; fill-opacity:1; font-family:Bookman Old Style,Bookman,Georgia,serif; font-size:63px; text-anchor:middle;" transform="rotate(0, 287.523, 1386.25)" x="287.523" y="1386.25">0.0</text>
</g>
<g clip-path="url(#clip580)">
<text style="fill:#000000; fill-opacity:1; font-family:Bookman Old Style,Bookman,Georgia,serif; font-size:63px; text-anchor:middle;" transform="rotate(0, 262.149, 1049.19)" x="262.149" y="1049.19">5e-5</text>
</g>
<g clip-path="url(#clip580)">
<text style="fill:#000000; fill-opacity:1; font-family:Bookman Old Style,Bookman,Georgia,serif; font-size:63px; text-anchor:middle;" transform="rotate(0, 262.149, 712.134)" x="262.149" y="712.134">1e-4</text>
</g>
<g clip-path="url(#clip580)">
<text style="fill:#000000; fill-opacity:1; font-family:Bookman Old Style,Bookman,Georgia,serif; font-size:63px; text-anchor:middle;" transform="rotate(0, 232.334, 375.077)" x="232.334" y="375.077">1.5e-4</text>
</g>
<g clip-path="url(#clip580)">
<text style="fill:#000000; fill-opacity:1; font-family:Bookman Old Style,Bookman,Georgia,serif; font-size:90px; text-anchor:middle;" transform="rotate(-90, 73.4781, 762.367)" x="73.4781" y="762.367">Abundance per Hydrogen Molecule</text>
</g>
<g clip-path="url(#clip580)">
<text style="fill:#000000; fill-opacity:1; font-family:Bookman Old Style,Bookman,Georgia,serif; font-size:90px; text-anchor:middle;" transform="rotate(0, 1362.88, 73.2)" x="1362.88" y="73.2">Nelson Vs. Umist: Oxygen</text>
</g>
<polyline clip-path="url(#clip582)" style="stroke:#191900; stroke-linecap:round; stroke-linejoin:round; stroke-width:16; stroke-opacity:1; fill:none" points="429.034,1364.68 434.637,649.449 440.24,470.115 445.843,366.711 451.446,297.94 457.05,252.052 462.653,221.378 468.256,200.851 473.859,187.156 479.462,178.044 485.065,171.992 490.668,168.063 496.271,165.48 501.874,163.766 507.477,162.631 513.08,161.904 518.683,161.458 524.286,161.184 529.889,161.018 535.493,160.917 541.096,160.859 546.699,160.831 552.302,160.816 557.905,160.819 563.508,160.823 569.111,160.828 574.714,160.834 580.317,160.84 585.92,160.845 591.523,160.85 597.126,160.854 602.729,160.857 608.332,160.859 613.936,160.86 619.539,160.86 625.142,160.859 630.745,160.858 636.348,160.856 641.951,160.854 647.554,160.851 653.157,160.848 658.76,160.845 664.363,160.842 669.966,160.838 675.569,160.835 681.172,160.831 686.776,160.827 692.379,160.823 697.982,160.819 703.585,160.815 709.188,160.811 714.791,160.807 720.394,160.803 725.997,160.799 731.6,160.795 737.203,160.791 742.806,160.787 748.409,160.783 754.012,160.778 759.615,160.774 765.219,160.77 770.822,160.766 776.425,160.762 782.028,160.758 787.631,160.754 793.234,160.75 798.837,160.746 804.44,160.742 810.043,160.738 815.646,160.734 821.249,160.73 826.852,160.726 832.455,160.722 838.058,160.718 843.662,160.714 849.265,160.711 854.868,160.707 860.471,160.703 866.074,160.699 871.677,160.695 877.28,160.692 882.883,160.688 888.486,160.684 894.089,160.68 899.692,160.677 905.295,160.673 910.898,160.669 916.502,160.666 922.105,160.662 927.708,160.658 933.311,160.655 938.914,160.651 944.517,160.648 950.12,160.644 955.723,160.64 961.326,160.637 966.929,160.633 972.532,160.63 978.135,160.626 983.738,160.623 989.341,160.619 994.945,160.616 1000.55,160.613 1006.15,160.609 1011.75,160.606 1017.36,160.602 1022.96,160.599 1028.56,160.596 1034.17,160.592 1039.77,160.589 1045.37,160.586 1050.98,160.582 1056.58,160.579 1062.18,160.576 1067.78,160.572 1073.39,160.569 1078.99,160.566 1084.59,160.563 1090.2,160.559 1095.8,160.556 1101.4,160.553 1107.01,160.55 1112.61,160.547 1118.21,160.544 1123.82,160.54 1129.42,160.537 1135.02,160.534 1140.62,160.531 1146.23,160.528 1151.83,160.525 1157.43,160.522 1163.04,160.519 1168.64,160.516 1174.24,160.513 1179.85,160.51 1185.45,160.506 1191.05,160.503 1196.66,160.5 1202.26,160.497 1207.86,160.494 1213.46,160.492 1219.07,160.489 1224.67,160.486 1230.27,160.483 1235.88,160.48 1241.48,160.477 1247.08,160.474 1252.69,160.471 1258.29,160.468 1263.89,160.465 1269.5,160.462 1275.1,160.46 1280.7,160.457 1286.3,160.454 1291.91,160.451 1297.51,160.448 1303.11,160.445 1308.72,160.443 1314.32,160.44 1319.92,160.437 1325.53,160.434 1331.13,160.432 1336.73,160.429 1342.34,160.426 1347.94,160.423 1353.54,160.421 1359.14,160.418 1364.75,160.415 1370.35,160.412 1375.95,160.41 1381.56,160.407 1387.16,160.404 1392.76,160.402 1398.37,160.399 1403.97,160.396 1409.57,160.394 1415.18,160.391 1420.78,160.389 1426.38,160.386 1431.98,160.383 1437.59,160.381 1443.19,160.378 1448.79,160.375 1454.4,160.373 1460,160.37 1465.6,160.368 1471.21,160.365 1476.81,160.363 1482.41,160.36 1488.01,160.358 1493.62,160.355 1499.22,160.353 1504.82,160.35 1510.43,160.348 1516.03,160.345 1521.63,160.343 1527.24,160.34 1532.84,160.338 1538.44,160.335 1544.05,160.333 1549.65,160.33 1555.25,160.328 1560.85,160.325 1566.46,160.323 1572.06,160.321 1577.66,160.318 1583.27,160.316 1588.87,160.313 1594.47,160.311 1600.08,160.309 1605.68,160.306 1611.28,160.304 1616.89,160.302 1622.49,160.299 1628.09,160.297 1633.69,160.295 1639.3,160.292 1644.9,160.29 1650.5,160.288 1656.11,160.285 1661.71,160.283 1667.31,160.281 1672.92,160.278 1678.52,160.276 1684.12,160.274 1689.73,160.272 1695.33,160.269 1700.93,160.267 1706.53,160.265 1712.14,160.263 1717.74,160.26 1723.34,160.258 1728.95,160.256 1734.55,160.254 1740.15,160.251 1745.76,160.249 1751.36,160.247 1756.96,160.245 1762.57,160.243 1768.17,160.24 1773.77,160.238 1779.37,160.236 1784.98,160.234 1790.58,160.232 1796.18,160.23 1801.79,160.228 1807.39,160.225 1812.99,160.223 1818.6,160.221 1824.2,160.219 1829.8,160.217 1835.41,160.215 1841.01,160.213 1846.61,160.211 1852.21,160.208 1857.82,160.206 1863.42,160.204 1869.02,160.202 1874.63,160.2 1880.23,160.198 1885.83,160.196 1891.44,160.194 1897.04,160.192 1902.64,160.19 1908.25,160.188 1913.85,160.186 1919.45,160.184 1925.05,160.182 1930.66,160.18 1936.26,160.178 1941.86,160.176 1947.47,160.174 1953.07,160.172 1958.67,160.17 1964.28,160.168 1969.88,160.166 1975.48,160.164 1981.09,160.162 1986.69,160.16 1992.29,160.158 1997.89,160.156 2003.5,160.154 2009.1,160.152 2014.7,160.15 2020.31,160.148 2025.91,160.146 2031.51,160.144 2037.12,160.142 2042.72,160.14 2048.32,160.139 2053.93,160.137 2059.53,160.135 2065.13,160.133 2070.73,160.131 2076.34,160.129 2081.94,160.127 2087.54,160.125 2093.15,160.123 2098.75,160.122 2104.35,160.12 2109.96,160.118 2115.56,160.116 2121.16,160.114 2126.77,160.112 2132.37,160.111 2137.97,160.109 2143.57,160.107 2149.18,160.105 2154.78,160.103 2160.38,160.101 2165.99,160.1 2171.59,160.098 2177.19,160.096 2182.8,160.094 2188.4,160.092 2194,160.091 2199.61,160.089 2205.21,160.087 2210.81,160.085 2216.41,160.083 2222.02,160.082 2227.62,160.08 2233.22,160.078 2238.83,160.076 2244.43,160.074 2250.03,160.073 2255.64,160.071 2261.24,160.069 2266.84,160.067 2272.45,160.066 2278.05,160.064 2283.65,160.062 2289.25,160.06 2296.73,160.058 "/>
<polyline clip-path="url(#clip582)" style="stroke:#8e3f3c; stroke-linecap:round; stroke-linejoin:round; stroke-width:16; stroke-opacity:1; fill:none" points="429.034,697.247 434.637,252.686 440.24,213.547 445.843,195.253 451.446,183.219 457.05,175.264 462.653,170.1 468.256,166.707 473.859,164.483 479.462,163.021 485.065,162.095 490.668,161.521 496.271,161.174 501.874,160.966 507.477,160.853 513.08,160.794 518.683,160.767 524.286,160.761 529.889,160.764 535.493,160.772 541.096,160.783 546.699,160.792 552.302,160.8 557.905,160.807 563.508,160.817 569.111,160.827 574.714,160.834 580.317,160.842 585.92,160.85 591.523,160.856 597.126,160.86 602.729,160.861 608.332,160.862 613.936,160.861 619.539,160.859 625.142,160.857 630.745,160.853 636.348,160.851 641.951,160.849 647.554,160.846 653.157,160.842 658.76,160.838 664.363,160.835 669.966,160.831 675.569,160.828 681.172,160.824 686.776,160.82 692.379,160.816 697.982,160.812 703.585,160.808 709.188,160.804 714.791,160.801 720.394,160.797 725.997,160.792 731.6,160.786 737.203,160.782 742.806,160.779 748.409,160.776 754.012,160.771 759.615,160.766 765.219,160.761 770.822,160.756 776.425,160.752 782.028,160.748 787.631,160.743 793.234,160.739 798.837,160.734 804.44,160.73 810.043,160.726 815.646,160.722 821.249,160.718 826.852,160.714 832.455,160.71 838.058,160.707 843.662,160.703 849.265,160.7 854.868,160.697 860.471,160.693 866.074,160.69 871.677,160.687 877.28,160.683 882.883,160.68 888.486,160.677 894.089,160.673 899.692,160.67 905.295,160.666 910.898,160.663 916.502,160.659 922.105,160.656 927.708,160.652 933.311,160.649 938.914,160.645 944.517,160.641 950.12,160.638 955.723,160.634 961.326,160.631 966.929,160.627 972.532,160.624 978.135,160.62 983.738,160.617 989.341,160.613 994.945,160.61 1000.55,160.606 1006.15,160.603 1011.75,160.6 1017.36,160.596 1022.96,160.593 1028.56,160.589 1034.17,160.586 1039.77,160.583 1045.37,160.579 1050.98,160.576 1056.58,160.572 1062.18,160.569 1067.78,160.566 1073.39,160.563 1078.99,160.56 1084.59,160.556 1090.2,160.553 1095.8,160.55 1101.4,160.547 1107.01,160.544 1112.61,160.541 1118.21,160.537 1123.82,160.534 1129.42,160.531 1135.02,160.528 1140.62,160.525 1146.23,160.522 1151.83,160.519 1157.43,160.516 1163.04,160.513 1168.64,160.51 1174.24,160.507 1179.85,160.503 1185.45,160.5 1191.05,160.497 1196.66,160.494 1202.26,160.491 1207.86,160.488 1213.46,160.485 1219.07,160.482 1224.67,160.48 1230.27,160.477 1235.88,160.474 1241.48,160.471 1247.08,160.468 1252.69,160.465 1258.29,160.462 1263.89,160.459 1269.5,160.457 1275.1,160.454 1280.7,160.451 1286.3,160.448 1291.91,160.445 1297.51,160.442 1303.11,160.44 1308.72,160.437 1314.32,160.434 1319.92,160.431 1325.53,160.428 1331.13,160.426 1336.73,160.423 1342.34,160.42 1347.94,160.418 1353.54,160.415 1359.14,160.412 1364.75,160.409 1370.35,160.407 1375.95,160.404 1381.56,160.401 1387.16,160.399 1392.76,160.396 1398.37,160.393 1403.97,160.391 1409.57,160.388 1415.18,160.386 1420.78,160.383 1426.38,160.38 1431.98,160.378 1437.59,160.375 1443.19,160.373 1448.79,160.37 1454.4,160.368 1460,160.365 1465.6,160.363 1471.21,160.36 1476.81,160.357 1482.41,160.355 1488.01,160.352 1493.62,160.35 1499.22,160.347 1504.82,160.345 1510.43,160.342 1516.03,160.34 1521.63,160.338 1527.24,160.335 1532.84,160.333 1538.44,160.33 1544.05,160.328 1549.65,160.325 1555.25,160.323 1560.85,160.32 1566.46,160.318 1572.06,160.316 1577.66,160.313 1583.27,160.311 1588.87,160.309 1594.47,160.306 1600.08,160.304 1605.68,160.301 1611.28,160.299 1616.89,160.297 1622.49,160.294 1628.09,160.292 1633.69,160.29 1639.3,160.288 1644.9,160.285 1650.5,160.283 1656.11,160.281 1661.71,160.278 1667.31,160.276 1672.92,160.274 1678.52,160.272 1684.12,160.269 1689.73,160.267 1695.33,160.265 1700.93,160.263 1706.53,160.26 1712.14,160.258 1717.74,160.256 1723.34,160.254 1728.95,160.252 1734.55,160.249 1740.15,160.247 1745.76,160.245 1751.36,160.243 1756.96,160.241 1762.57,160.239 1768.17,160.236 1773.77,160.234 1779.37,160.232 1784.98,160.23 1790.58,160.228 1796.18,160.226 1801.79,160.223 1807.39,160.221 1812.99,160.219 1818.6,160.217 1824.2,160.215 1829.8,160.213 1835.41,160.211 1841.01,160.209 1846.61,160.207 1852.21,160.205 1857.82,160.202 1863.42,160.2 1869.02,160.198 1874.63,160.196 1880.23,160.194 1885.83,160.192 1891.44,160.19 1897.04,160.188 1902.64,160.186 1908.25,160.184 1913.85,160.182 1919.45,160.18 1925.05,160.178 1930.66,160.176 1936.26,160.174 1941.86,160.172 1947.47,160.17 1953.07,160.168 1958.67,160.166 1964.28,160.164 1969.88,160.162 1975.48,160.16 1981.09,160.158 1986.69,160.156 1992.29,160.154 1997.89,160.152 2003.5,160.15 2009.1,160.148 2014.7,160.146 2020.31,160.144 2025.91,160.142 2031.51,160.141 2037.12,160.139 2042.72,160.137 2048.32,160.135 2053.93,160.133 2059.53,160.131 2065.13,160.129 2070.73,160.127 2076.34,160.125 2081.94,160.124 2087.54,160.122 2093.15,160.12 2098.75,160.118 2104.35,160.116 2109.96,160.114 2115.56,160.112 2121.16,160.111 2126.77,160.109 2132.37,160.107 2137.97,160.105 2143.57,160.103 2149.18,160.101 2154.78,160.1 2160.38,160.098 2165.99,160.096 2171.59,160.094 2177.19,160.092 2182.8,160.091 2188.4,160.089 2194,160.087 2199.61,160.085 2205.21,160.083 2210.81,160.082 2216.41,160.08 2222.02,160.078 2227.62,160.076 2233.22,160.075 2238.83,160.073 2244.43,160.071 2250.03,160.069 2255.64,160.068 2261.24,160.066 2266.84,160.064 2272.45,160.062 2278.05,160.061 2283.65,160.059 2289.25,160.057 2296.73,160.055 "/>
<polyline clip-path="url(#clip582)" style="stroke:#e69351; stroke-linecap:round; stroke-linejoin:round; stroke-width:16; stroke-opacity:1; fill:none" points="429.034,1364.68 434.637,1283.85 440.24,1164.19 445.843,1057.1 451.446,970.856 457.05,904.805 462.653,855.715 468.256,819.642 473.859,792.906 479.462,772.535 485.065,756.323 490.668,742.787 496.271,730.912 501.874,720.107 507.477,709.979 513.08,700.318 518.683,691.007 524.286,681.965 529.889,673.166 535.493,664.588 541.096,656.212 546.699,648.037 552.302,640.056 557.905,632.264 563.508,624.652 569.111,617.222 574.714,609.971 580.317,602.895 585.92,595.988 591.523,589.248 597.126,582.668 602.729,576.252 608.332,569.995 613.936,563.893 619.539,557.942 625.142,552.139 630.745,546.48 636.348,540.962 641.951,535.582 647.554,530.339 653.157,525.23 658.76,520.251 664.363,515.399 669.966,510.671 675.569,506.063 681.172,501.572 686.776,497.195 692.379,492.93 697.982,488.774 703.585,484.727 709.188,480.784 714.791,476.942 720.394,473.2 725.997,469.555 731.6,466.004 737.203,462.545 742.806,459.175 748.409,455.891 754.012,452.692 759.615,449.574 765.219,446.538 770.822,443.581 776.425,440.701 782.028,437.895 787.631,435.161 793.234,432.499 798.837,429.906 804.44,427.381 810.043,424.921 815.646,422.524 821.249,420.19 826.852,417.915 832.455,415.699 838.058,413.54 843.662,411.435 849.265,409.387 854.868,407.391 860.471,405.447 866.074,403.553 871.677,401.708 877.28,399.911 882.883,398.16 888.486,396.456 894.089,394.795 899.692,393.178 905.295,391.602 910.898,390.067 916.502,388.572 922.105,387.115 927.708,385.696 933.311,384.312 938.914,382.962 944.517,381.648 950.12,380.369 955.723,379.123 961.326,377.908 966.929,376.725 972.532,375.572 978.135,374.449 983.738,373.356 989.341,372.29 994.945,371.252 1000.55,370.241 1006.15,369.256 1011.75,368.297 1017.36,367.363 1022.96,366.452 1028.56,365.565 1034.17,364.701 1039.77,363.859 1045.37,363.037 1050.98,362.237 1056.58,361.456 1062.18,360.694 1067.78,359.954 1073.39,359.232 1078.99,358.529 1084.59,357.843 1090.2,357.175 1095.8,356.524 1101.4,355.89 1107.01,355.272 1112.61,354.67 1118.21,354.083 1123.82,353.512 1129.42,352.955 1135.02,352.413 1140.62,351.885 1146.23,351.37 1151.83,350.868 1157.43,350.38 1163.04,349.903 1168.64,349.439 1174.24,348.987 1179.85,348.546 1185.45,348.116 1191.05,347.696 1196.66,347.287 1202.26,346.887 1207.86,346.497 1213.46,346.117 1219.07,345.748 1224.67,345.388 1230.27,345.037 1235.88,344.695 1241.48,344.361 1247.08,344.035 1252.69,343.718 1258.29,343.408 1263.89,343.107 1269.5,342.813 1275.1,342.526 1280.7,342.247 1286.3,341.975 1291.91,341.71 1297.51,341.451 1303.11,341.199 1308.72,340.954 1314.32,340.715 1319.92,340.481 1325.53,340.254 1331.13,340.032 1336.73,339.816 1342.34,339.605 1347.94,339.4 1353.54,339.199 1359.14,339.003 1364.75,338.812 1370.35,338.625 1375.95,338.442 1381.56,338.263 1387.16,338.089 1392.76,337.919 1398.37,337.754 1403.97,337.593 1409.57,337.436 1415.18,337.282 1420.78,337.132 1426.38,336.986 1431.98,336.843 1437.59,336.703 1443.19,336.567 1448.79,336.434 1454.4,336.305 1460,336.178 1465.6,336.055 1471.21,335.934 1476.81,335.817 1482.41,335.702 1488.01,335.591 1493.62,335.482 1499.22,335.375 1504.82,335.271 1510.43,335.17 1516.03,335.071 1521.63,334.975 1527.24,334.881 1532.84,334.789 1538.44,334.699 1544.05,334.612 1549.65,334.526 1555.25,334.443 1560.85,334.361 1566.46,334.282 1572.06,334.204 1577.66,334.127 1583.27,334.053 1588.87,333.98 1594.47,333.908 1600.08,333.838 1605.68,333.769 1611.28,333.701 1616.89,333.636 1622.49,333.572 1628.09,333.51 1633.69,333.45 1639.3,333.39 1644.9,333.332 1650.5,333.275 1656.11,333.219 1661.71,333.165 1667.31,333.111 1672.92,333.059 1678.52,333.008 1684.12,332.958 1689.73,332.91 1695.33,332.862 1700.93,332.815 1706.53,332.77 1712.14,332.725 1717.74,332.682 1723.34,332.639 1728.95,332.598 1734.55,332.557 1740.15,332.517 1745.76,332.479 1751.36,332.441 1756.96,332.404 1762.57,332.368 1768.17,332.333 1773.77,332.298 1779.37,332.264 1784.98,332.232 1790.58,332.199 1796.18,332.168 1801.79,332.137 1807.39,332.107 1812.99,332.078 1818.6,332.05 1824.2,332.022 1829.8,331.994 1835.41,331.967 1841.01,331.941 1846.61,331.916 1852.21,331.89 1857.82,331.866 1863.42,331.842 1869.02,331.818 1874.63,331.795 1880.23,331.773 1885.83,331.751 1891.44,331.731 1897.04,331.712 1902.64,331.693 1908.25,331.674 1913.85,331.656 1919.45,331.638 1925.05,331.62 1930.66,331.603 1936.26,331.586 1941.86,331.569 1947.47,331.553 1953.07,331.537 1958.67,331.522 1964.28,331.507 1969.88,331.492 1975.48,331.478 1981.09,331.465 1986.69,331.452 1992.29,331.44 1997.89,331.428 2003.5,331.417 2009.1,331.406 2014.7,331.396 2020.31,331.386 2025.91,331.378 2031.51,331.369 2037.12,331.362 2042.72,331.355 2048.32,331.349 2053.93,331.344 2059.53,331.339 2065.13,331.335 2070.73,331.332 2076.34,331.329 2081.94,331.328 2087.54,331.327 2093.15,331.327 2098.75,331.328 2104.35,331.329 2109.96,331.332 2115.56,331.335 2121.16,331.339 2126.77,331.345 2132.37,331.351 2137.97,331.358 2143.57,331.366 2149.18,331.375 2154.78,331.385 2160.38,331.397 2165.99,331.409 2171.59,331.42 2177.19,331.432 2182.8,331.445 2188.4,331.458 2194,331.471 2199.61,331.487 2205.21,331.503 2210.81,331.521 2216.41,331.541 2222.02,331.564 2227.62,331.588 2233.22,331.616 2238.83,331.646 2244.43,331.679 2250.03,331.716 2255.64,331.757 2261.24,331.801 2266.84,331.85 2272.45,331.903 2278.05,331.96 2283.65,332.023 2289.25,332.09 2296.73,332.189 "/>
<polyline clip-path="url(#clip582)" style="stroke:#f7de7b; stroke-linecap:round; stroke-linejoin:round; stroke-width:16; stroke-opacity:1; fill:none" points="429.034,697.247 434.637,650.808 440.24,573.969 445.843,513.951 451.446,476.413 457.05,455.325 462.653,443.872 468.256,437.234 473.859,432.677 479.462,428.919 485.065,425.473 490.668,422.179 496.271,419.005 501.874,415.948 507.477,413.008 513.08,410.182 518.683,407.474 524.286,404.88 529.889,402.393 535.493,400.009 541.096,397.726 546.699,395.539 552.302,393.444 557.905,391.435 563.508,389.507 569.111,387.658 574.714,385.884 580.317,384.181 585.92,382.546 591.523,380.974 597.126,379.461 602.729,378.007 608.332,376.607 613.936,375.26 619.539,373.963 625.142,372.713 630.745,371.508 636.348,370.346 641.951,369.224 647.554,368.141 653.157,367.096 658.76,366.086 664.363,365.111 669.966,364.168 675.569,363.257 681.172,362.376 686.776,361.523 692.379,360.697 697.982,359.897 703.585,359.123 709.188,358.373 714.791,357.646 720.394,356.941 725.997,356.258 731.6,355.596 737.203,354.954 742.806,354.332 748.409,353.728 754.012,353.141 759.615,352.572 765.219,352.019 770.822,351.482 776.425,350.961 782.028,350.454 787.631,349.962 793.234,349.484 798.837,349.019 804.44,348.568 810.043,348.129 815.646,347.703 821.249,347.288 826.852,346.885 832.455,346.493 838.058,346.112 843.662,345.741 849.265,345.38 854.868,345.028 860.471,344.686 866.074,344.354 871.677,344.03 877.28,343.715 882.883,343.408 888.486,343.11 894.089,342.819 899.692,342.536 905.295,342.261 910.898,341.993 916.502,341.732 922.105,341.478 927.708,341.231 933.311,340.99 938.914,340.755 944.517,340.527 950.12,340.304 955.723,340.087 961.326,339.876 966.929,339.669 972.532,339.468 978.135,339.272 983.738,339.081 989.341,338.895 994.945,338.714 1000.55,338.537 1006.15,338.365 1011.75,338.197 1017.36,338.033 1022.96,337.874 1028.56,337.718 1034.17,337.566 1039.77,337.419 1045.37,337.275 1050.98,337.134 1056.58,336.997 1062.18,336.864 1067.78,336.734 1073.39,336.607 1078.99,336.483 1084.59,336.362 1090.2,336.244 1095.8,336.129 1101.4,336.017 1107.01,335.908 1112.61,335.8 1118.21,335.696 1123.82,335.593 1129.42,335.493 1135.02,335.396 1140.62,335.301 1146.23,335.209 1151.83,335.118 1157.43,335.03 1163.04,334.943 1168.64,334.859 1174.24,334.776 1179.85,334.696 1185.45,334.617 1191.05,334.54 1196.66,334.465 1202.26,334.392 1207.86,334.32 1213.46,334.25 1219.07,334.182 1224.67,334.115 1230.27,334.05 1235.88,333.986 1241.48,333.924 1247.08,333.863 1252.69,333.803 1258.29,333.745 1263.89,333.689 1269.5,333.633 1275.1,333.579 1280.7,333.526 1286.3,333.474 1291.91,333.423 1297.51,333.373 1303.11,333.324 1308.72,333.276 1314.32,333.229 1319.92,333.183 1325.53,333.138 1331.13,333.094 1336.73,333.05 1342.34,333.008 1347.94,332.966 1353.54,332.926 1359.14,332.886 1364.75,332.847 1370.35,332.809 1375.95,332.771 1381.56,332.734 1387.16,332.698 1392.76,332.663 1398.37,332.628 1403.97,332.594 1409.57,332.561 1415.18,332.528 1420.78,332.496 1426.38,332.464 1431.98,332.433 1437.59,332.403 1443.19,332.373 1448.79,332.344 1454.4,332.315 1460,332.287 1465.6,332.26 1471.21,332.233 1476.81,332.206 1482.41,332.18 1488.01,332.154 1493.62,332.129 1499.22,332.105 1504.82,332.081 1510.43,332.057 1516.03,332.034 1521.63,332.011 1527.24,331.988 1532.84,331.966 1538.44,331.945 1544.05,331.923 1549.65,331.902 1555.25,331.882 1560.85,331.862 1566.46,331.842 1572.06,331.822 1577.66,331.803 1583.27,331.784 1588.87,331.765 1594.47,331.746 1600.08,331.728 1605.68,331.71 1611.28,331.692 1616.89,331.674 1622.49,331.657 1628.09,331.641 1633.69,331.625 1639.3,331.609 1644.9,331.593 1650.5,331.578 1656.11,331.562 1661.71,331.547 1667.31,331.532 1672.92,331.518 1678.52,331.503 1684.12,331.489 1689.73,331.475 1695.33,331.461 1700.93,331.448 1706.53,331.435 1712.14,331.422 1717.74,331.409 1723.34,331.396 1728.95,331.384 1734.55,331.372 1740.15,331.36 1745.76,331.348 1751.36,331.337 1756.96,331.326 1762.57,331.315 1768.17,331.304 1773.77,331.294 1779.37,331.284 1784.98,331.274 1790.58,331.264 1796.18,331.255 1801.79,331.245 1807.39,331.237 1812.99,331.228 1818.6,331.219 1824.2,331.211 1829.8,331.204 1835.41,331.196 1841.01,331.189 1846.61,331.182 1852.21,331.175 1857.82,331.168 1863.42,331.162 1869.02,331.156 1874.63,331.15 1880.23,331.145 1885.83,331.14 1891.44,331.135 1897.04,331.13 1902.64,331.126 1908.25,331.125 1913.85,331.123 1919.45,331.121 1925.05,331.119 1930.66,331.117 1936.26,331.115 1941.86,331.113 1947.47,331.11 1953.07,331.108 1958.67,331.106 1964.28,331.105 1969.88,331.104 1975.48,331.103 1981.09,331.102 1986.69,331.102 1992.29,331.102 1997.89,331.104 2003.5,331.105 2009.1,331.108 2014.7,331.111 2020.31,331.115 2025.91,331.12 2031.51,331.126 2037.12,331.133 2042.72,331.141 2048.32,331.15 2053.93,331.161 2059.53,331.172 2065.13,331.185 2070.73,331.2 2076.34,331.215 2081.94,331.233 2087.54,331.252 2093.15,331.272 2098.75,331.294 2104.35,331.318 2109.96,331.344 2115.56,331.371 2121.16,331.4 2126.77,331.432 2132.37,331.465 2137.97,331.501 2143.57,331.536 2149.18,331.571 2154.78,331.606 2160.38,331.642 2165.99,331.679 2171.59,331.718 2177.19,331.758 2182.8,331.802 2188.4,331.85 2194,331.901 2199.61,331.958 2205.21,332.019 2210.81,332.087 2216.41,332.16 2222.02,332.241 2227.62,332.33 2233.22,332.427 2238.83,332.533 2244.43,332.648 2250.03,332.773 2255.64,332.908 2261.24,333.049 2266.84,333.192 2272.45,333.346 2278.05,333.512 2283.65,333.69 2289.25,333.882 2296.73,334.16 "/>
<path clip-path="url(#clip580)" d="M1526.74 1358.26 L2286.76 1358.26 L2286.76 1031.88 L1526.74 1031.88  Z" fill="#ffffff" fill-rule="evenodd" fill-opacity="1"/>
<polyline clip-path="url(#clip580)" style="stroke:#000000; stroke-linecap:round; stroke-linejoin:round; stroke-width:4; stroke-opacity:1; fill:none" points="1526.74,1358.26 2286.76,1358.26 2286.76,1031.88 1526.74,1031.88 1526.74,1358.26 "/>
<polyline clip-path="url(#clip580)" style="stroke:#191900; stroke-linecap:round; stroke-linejoin:round; stroke-width:20; stroke-opacity:1; fill:none" points="1548.74,1097.15 1680.73,1097.15 "/>
<g clip-path="url(#clip580)">
<text style="fill:#000000; fill-opacity:1; font-family:Bookman Old Style,Bookman,Georgia,serif; font-size:63px; text-anchor:start;" transform="rotate(0, 1702.72, 1118.65)" x="1702.72" y="1118.65">Nelson fiducial u0</text>
</g>
<polyline clip-path="url(#clip580)" style="stroke:#8e3f3c; stroke-linecap:round; stroke-linejoin:round; stroke-width:20; stroke-opacity:1; fill:none" points="1548.74,1162.43 1680.73,1162.43 "/>
<g clip-path="url(#clip580)">
<text style="fill:#000000; fill-opacity:1; font-family:Bookman Old Style,Bookman,Georgia,serif; font-size:63px; text-anchor:start;" transform="rotate(0, 1702.72, 1183.93)" x="1702.72" y="1183.93">Nelson neutral u0</text>
</g>
<polyline clip-path="url(#clip580)" style="stroke:#e69351; stroke-linecap:round; stroke-linejoin:round; stroke-width:20; stroke-opacity:1; fill:none" points="1548.74,1227.7 1680.73,1227.7 "/>
<g clip-path="url(#clip580)">
<text style="fill:#000000; fill-opacity:1; font-family:Bookman Old Style,Bookman,Georgia,serif; font-size:63px; text-anchor:start;" transform="rotate(0, 1702.72, 1249.2)" x="1702.72" y="1249.2">Umist fiducial u0</text>
</g>
<polyline clip-path="url(#clip580)" style="stroke:#f7de7b; stroke-linecap:round; stroke-linejoin:round; stroke-width:20; stroke-opacity:1; fill:none" points="1548.74,1292.98 1680.73,1292.98 "/>
<g clip-path="url(#clip580)">
<text style="fill:#000000; fill-opacity:1; font-family:Bookman Old Style,Bookman,Georgia,serif; font-size:63px; text-anchor:start;" transform="rotate(0, 1702.72, 1314.48)" x="1702.72" y="1314.48">Umist neutral u0</text>
</g>
</svg>
