<?xml version="1.0" encoding="utf-8"?>
<svg xmlns="http://www.w3.org/2000/svg" xmlns:xlink="http://www.w3.org/1999/xlink" width="600" height="400" viewBox="0 0 2400 1600">
<defs>
  <clipPath id="clip100">
    <rect x="0" y="0" width="2400" height="1600"/>
  </clipPath>
</defs>
<path clip-path="url(#clip100)" d="M0 1600 L2400 1600 L2400 0 L0 0  Z" fill="#ffffff" fill-rule="evenodd" fill-opacity="1"/>
<defs>
  <clipPath id="clip101">
    <rect x="480" y="0" width="1681" height="1600"/>
  </clipPath>
</defs>
<path clip-path="url(#clip100)" d="M373.003 1400.82 L2352.76 1400.82 L2352.76 123.916 L373.003 123.916  Z" fill="#ffffff" fill-rule="evenodd" fill-opacity="1"/>
<defs>
  <clipPath id="clip102">
    <rect x="373" y="123" width="1981" height="1278"/>
  </clipPath>
</defs>
<polyline clip-path="url(#clip102)" style="stroke:#000000; stroke-linecap:round; stroke-linejoin:round; stroke-width:2; stroke-opacity:0.1; fill:none" points="895.957,1400.82 895.957,123.916 "/>
<polyline clip-path="url(#clip102)" style="stroke:#000000; stroke-linecap:round; stroke-linejoin:round; stroke-width:2; stroke-opacity:0.1; fill:none" points="1362.88,1400.82 1362.88,123.916 "/>
<polyline clip-path="url(#clip102)" style="stroke:#000000; stroke-linecap:round; stroke-linejoin:round; stroke-width:2; stroke-opacity:0.1; fill:none" points="1829.8,1400.82 1829.8,123.916 "/>
<polyline clip-path="url(#clip102)" style="stroke:#000000; stroke-linecap:round; stroke-linejoin:round; stroke-width:2; stroke-opacity:0.1; fill:none" points="2296.73,1400.82 2296.73,123.916 "/>
<polyline clip-path="url(#clip102)" style="stroke:#000000; stroke-linecap:round; stroke-linejoin:round; stroke-width:2; stroke-opacity:0.1; fill:none" points="373.003,1364.74 2352.76,1364.74 "/>
<polyline clip-path="url(#clip102)" style="stroke:#000000; stroke-linecap:round; stroke-linejoin:round; stroke-width:2; stroke-opacity:0.1; fill:none" points="373.003,1060.57 2352.76,1060.57 "/>
<polyline clip-path="url(#clip102)" style="stroke:#000000; stroke-linecap:round; stroke-linejoin:round; stroke-width:2; stroke-opacity:0.1; fill:none" points="373.003,756.406 2352.76,756.406 "/>
<polyline clip-path="url(#clip102)" style="stroke:#000000; stroke-linecap:round; stroke-linejoin:round; stroke-width:2; stroke-opacity:0.1; fill:none" points="373.003,452.238 2352.76,452.238 "/>
<polyline clip-path="url(#clip102)" style="stroke:#000000; stroke-linecap:round; stroke-linejoin:round; stroke-width:2; stroke-opacity:0.1; fill:none" points="373.003,148.071 2352.76,148.071 "/>
<polyline clip-path="url(#clip100)" style="stroke:#000000; stroke-linecap:round; stroke-linejoin:round; stroke-width:4; stroke-opacity:1; fill:none" points="373.003,1400.82 2352.76,1400.82 "/>
<polyline clip-path="url(#clip100)" style="stroke:#000000; stroke-linecap:round; stroke-linejoin:round; stroke-width:4; stroke-opacity:1; fill:none" points="895.957,1400.82 895.957,1381.92 "/>
<polyline clip-path="url(#clip100)" style="stroke:#000000; stroke-linecap:round; stroke-linejoin:round; stroke-width:4; stroke-opacity:1; fill:none" points="1362.88,1400.82 1362.88,1381.92 "/>
<polyline clip-path="url(#clip100)" style="stroke:#000000; stroke-linecap:round; stroke-linejoin:round; stroke-width:4; stroke-opacity:1; fill:none" points="1829.8,1400.82 1829.8,1381.92 "/>
<polyline clip-path="url(#clip100)" style="stroke:#000000; stroke-linecap:round; stroke-linejoin:round; stroke-width:4; stroke-opacity:1; fill:none" points="2296.73,1400.82 2296.73,1381.92 "/>
<g clip-path="url(#clip100)">
<text style="fill:#000000; fill-opacity:1; font-family:Bookman Old Style,Bookman,Georgia,serif; font-size:63px; text-anchor:middle;" transform="rotate(0, 895.957, 1474.16)" x="895.957" y="1474.16">2.5e5</text>
</g>
<g clip-path="url(#clip100)">
<text style="fill:#000000; fill-opacity:1; font-family:Bookman Old Style,Bookman,Georgia,serif; font-size:63px; text-anchor:middle;" transform="rotate(0, 1362.88, 1474.16)" x="1362.88" y="1474.16">5e5</text>
</g>
<g clip-path="url(#clip100)">
<text style="fill:#000000; fill-opacity:1; font-family:Bookman Old Style,Bookman,Georgia,serif; font-size:63px; text-anchor:middle;" transform="rotate(0, 1829.8, 1474.16)" x="1829.8" y="1474.16">7.5e5</text>
</g>
<g clip-path="url(#clip100)">
<text style="fill:#000000; fill-opacity:1; font-family:Bookman Old Style,Bookman,Georgia,serif; font-size:63px; text-anchor:middle;" transform="rotate(0, 2296.73, 1474.16)" x="2296.73" y="1474.16">1e6</text>
</g>
<g clip-path="url(#clip100)">
<text style="fill:#000000; fill-opacity:1; font-family:Bookman Old Style,Bookman,Georgia,serif; font-size:90px; text-anchor:middle;" transform="rotate(0, 1362.88, 1581.28)" x="1362.88" y="1581.28">Time (Years)</text>
</g>
<polyline clip-path="url(#clip100)" style="stroke:#000000; stroke-linecap:round; stroke-linejoin:round; stroke-width:4; stroke-opacity:1; fill:none" points="373.003,1400.82 373.003,123.916 "/>
<polyline clip-path="url(#clip100)" style="stroke:#000000; stroke-linecap:round; stroke-linejoin:round; stroke-width:4; stroke-opacity:1; fill:none" points="373.003,1364.74 391.901,1364.74 "/>
<polyline clip-path="url(#clip100)" style="stroke:#000000; stroke-linecap:round; stroke-linejoin:round; stroke-width:4; stroke-opacity:1; fill:none" points="373.003,1060.57 391.901,1060.57 "/>
<polyline clip-path="url(#clip100)" style="stroke:#000000; stroke-linecap:round; stroke-linejoin:round; stroke-width:4; stroke-opacity:1; fill:none" points="373.003,756.406 391.901,756.406 "/>
<polyline clip-path="url(#clip100)" style="stroke:#000000; stroke-linecap:round; stroke-linejoin:round; stroke-width:4; stroke-opacity:1; fill:none" points="373.003,452.238 391.901,452.238 "/>
<polyline clip-path="url(#clip100)" style="stroke:#000000; stroke-linecap:round; stroke-linejoin:round; stroke-width:4; stroke-opacity:1; fill:none" points="373.003,148.071 391.901,148.071 "/>
<g clip-path="url(#clip100)">
<text style="fill:#000000; fill-opacity:1; font-family:Bookman Old Style,Bookman,Georgia,serif; font-size:63px; text-anchor:middle;" transform="rotate(0, 287.523, 1386.24)" x="287.523" y="1386.24">0.0</text>
</g>
<g clip-path="url(#clip100)">
<text style="fill:#000000; fill-opacity:1; font-family:Bookman Old Style,Bookman,Georgia,serif; font-size:63px; text-anchor:middle;" transform="rotate(0, 232.334, 1082.07)" x="232.334" y="1082.07">2.5e-5</text>
</g>
<g clip-path="url(#clip100)">
<text style="fill:#000000; fill-opacity:1; font-family:Bookman Old Style,Bookman,Georgia,serif; font-size:63px; text-anchor:middle;" transform="rotate(0, 262.149, 777.906)" x="262.149" y="777.906">5e-5</text>
</g>
<g clip-path="url(#clip100)">
<text style="fill:#000000; fill-opacity:1; font-family:Bookman Old Style,Bookman,Georgia,serif; font-size:63px; text-anchor:middle;" transform="rotate(0, 232.334, 473.738)" x="232.334" y="473.738">7.5e-5</text>
</g>
<g clip-path="url(#clip100)">
<text style="fill:#000000; fill-opacity:1; font-family:Bookman Old Style,Bookman,Georgia,serif; font-size:63px; text-anchor:middle;" transform="rotate(0, 262.149, 169.571)" x="262.149" y="169.571">1e-4</text>
</g>
<g clip-path="url(#clip100)">
<text style="fill:#000000; fill-opacity:1; font-family:Bookman Old Style,Bookman,Georgia,serif; font-size:90px; text-anchor:middle;" transform="rotate(-90, 73.4781, 762.367)" x="73.4781" y="762.367">Abundance per Hydrogen Molecule</text>
</g>
<g clip-path="url(#clip100)">
<text style="fill:#000000; fill-opacity:1; font-family:Bookman Old Style,Bookman,Georgia,serif; font-size:90px; text-anchor:middle;" transform="rotate(0, 1362.88, 73.2)" x="1362.88" y="73.2">Nelson Vs. Umist: Carbon</text>
</g>
<polyline clip-path="url(#clip102)" style="stroke:#2b194c; stroke-linecap:round; stroke-linejoin:round; stroke-width:16; stroke-opacity:1; fill:none" points="429.034,1364.68 434.637,1007.33 440.24,793.974 445.843,684.392 451.446,642.403 457.05,642.202 462.653,665.858 468.256,701.898 473.859,743.249 479.462,785.528 485.065,826.282 490.668,864.125 496.271,898.22 501.874,928.337 507.477,954.595 513.08,977.306 518.683,996.795 524.286,1013.37 529.889,1027.37 535.493,1039.11 541.096,1048.9 546.699,1057.02 552.302,1063.71 557.905,1069.17 563.508,1073.58 569.111,1077.11 574.714,1079.87 580.317,1082 585.92,1083.6 591.523,1084.74 597.126,1085.5 602.729,1085.94 608.332,1086.11 613.936,1086.05 619.539,1085.81 625.142,1085.41 630.745,1084.89 636.348,1084.25 641.951,1083.51 647.554,1082.7 653.157,1081.82 658.76,1080.89 664.363,1079.92 669.966,1078.91 675.569,1077.87 681.172,1076.81 686.776,1075.73 692.379,1074.63 697.982,1073.52 703.585,1072.4 709.188,1071.27 714.791,1070.13 720.394,1068.99 725.997,1067.85 731.6,1066.7 737.203,1065.55 742.806,1064.41 748.409,1063.26 754.012,1062.12 759.615,1060.98 765.219,1059.84 770.822,1058.7 776.425,1057.57 782.028,1056.43 787.631,1055.3 793.234,1054.18 798.837,1053.06 804.44,1051.94 810.043,1050.82 815.646,1049.71 821.249,1048.6 826.852,1047.49 832.455,1046.39 838.058,1045.29 843.662,1044.2 849.265,1043.1 854.868,1042.02 860.471,1040.93 866.074,1039.85 871.677,1038.77 877.28,1037.7 882.883,1036.63 888.486,1035.56 894.089,1034.5 899.692,1033.44 905.295,1032.38 910.898,1031.33 916.502,1030.28 922.105,1029.24 927.708,1028.2 933.311,1027.16 938.914,1026.12 944.517,1025.09 950.12,1024.06 955.723,1023.04 961.326,1022.01 966.929,1020.99 972.532,1019.98 978.135,1018.97 983.738,1017.96 989.341,1016.95 994.945,1015.95 1000.55,1014.95 1006.15,1013.96 1011.75,1012.97 1017.36,1011.98 1022.96,1010.99 1028.56,1010.01 1034.17,1009.03 1039.77,1008.06 1045.37,1007.08 1050.98,1006.12 1056.58,1005.15 1062.18,1004.19 1067.78,1003.23 1073.39,1002.27 1078.99,1001.32 1084.59,1000.37 1090.2,999.422 1095.8,998.477 1101.4,997.535 1107.01,996.597 1112.61,995.661 1118.21,994.728 1123.82,993.799 1129.42,992.872 1135.02,991.948 1140.62,991.027 1146.23,990.109 1151.83,989.194 1157.43,988.282 1163.04,987.372 1168.64,986.466 1174.24,985.562 1179.85,984.661 1185.45,983.763 1191.05,982.868 1196.66,981.975 1202.26,981.085 1207.86,980.198 1213.46,979.314 1219.07,978.432 1224.67,977.553 1230.27,976.676 1235.88,975.803 1241.48,974.931 1247.08,974.063 1252.69,973.197 1258.29,972.334 1263.89,971.473 1269.5,970.614 1275.1,969.759 1280.7,968.905 1286.3,968.055 1291.91,967.206 1297.51,966.361 1303.11,965.517 1308.72,964.677 1314.32,963.838 1319.92,963.002 1325.53,962.169 1331.13,961.337 1336.73,960.508 1342.34,959.682 1347.94,958.859 1353.54,958.038 1359.14,957.219 1364.75,956.402 1370.35,955.588 1375.95,954.777 1381.56,953.967 1387.16,953.16 1392.76,952.355 1398.37,951.553 1403.97,950.753 1409.57,949.955 1415.18,949.159 1420.78,948.366 1426.38,947.575 1431.98,946.786 1437.59,945.999 1443.19,945.214 1448.79,944.432 1454.4,943.652 1460,942.874 1465.6,942.098 1471.21,941.324 1476.81,940.553 1482.41,939.784 1488.01,939.017 1493.62,938.253 1499.22,937.49 1504.82,936.73 1510.43,935.972 1516.03,935.215 1521.63,934.461 1527.24,933.709 1532.84,932.959 1538.44,932.211 1544.05,931.466 1549.65,930.722 1555.25,929.98 1560.85,929.24 1566.46,928.502 1572.06,927.766 1577.66,927.032 1583.27,926.3 1588.87,925.57 1594.47,924.842 1600.08,924.116 1605.68,923.392 1611.28,922.669 1616.89,921.949 1622.49,921.23 1628.09,920.513 1633.69,919.799 1639.3,919.085 1644.9,918.374 1650.5,917.665 1656.11,916.957 1661.71,916.251 1667.31,915.547 1672.92,914.845 1678.52,914.145 1684.12,913.446 1689.73,912.75 1695.33,912.056 1700.93,911.364 1706.53,910.674 1712.14,909.985 1717.74,909.299 1723.34,908.614 1728.95,907.931 1734.55,907.249 1740.15,906.57 1745.76,905.892 1751.36,905.216 1756.96,904.541 1762.57,903.869 1768.17,903.198 1773.77,902.529 1779.37,901.861 1784.98,901.195 1790.58,900.531 1796.18,899.869 1801.79,899.208 1807.39,898.549 1812.99,897.891 1818.6,897.235 1824.2,896.581 1829.8,895.928 1835.41,895.277 1841.01,894.628 1846.61,893.98 1852.21,893.334 1857.82,892.689 1863.42,892.046 1869.02,891.404 1874.63,890.764 1880.23,890.126 1885.83,889.489 1891.44,888.853 1897.04,888.219 1902.64,887.588 1908.25,886.958 1913.85,886.329 1919.45,885.702 1925.05,885.077 1930.66,884.453 1936.26,883.83 1941.86,883.21 1947.47,882.59 1953.07,881.972 1958.67,881.356 1964.28,880.741 1969.88,880.128 1975.48,879.516 1981.09,878.905 1986.69,878.296 1992.29,877.689 1997.89,877.083 2003.5,876.478 2009.1,875.875 2014.7,875.273 2020.31,874.673 2025.91,874.074 2031.51,873.476 2037.12,872.88 2042.72,872.285 2048.32,871.692 2053.93,871.1 2059.53,870.509 2065.13,869.92 2070.73,869.332 2076.34,868.745 2081.94,868.16 2087.54,867.576 2093.15,866.994 2098.75,866.412 2104.35,865.832 2109.96,865.254 2115.56,864.68 2121.16,864.104 2126.77,863.53 2132.37,862.957 2137.97,862.386 2143.57,861.815 2149.18,861.246 2154.78,860.679 2160.38,860.113 2165.99,859.548 2171.59,858.984 2177.19,858.422 2182.8,857.861 2188.4,857.301 2194,856.743 2199.61,856.186 2205.21,855.63 2210.81,855.075 2216.41,854.522 2222.02,853.97 2227.62,853.419 2233.22,852.869 2238.83,852.321 2244.43,851.774 2250.03,851.228 2255.64,850.683 2261.24,850.139 2266.84,849.597 2272.45,849.056 2278.05,848.516 2283.65,847.977 2289.25,847.44 2296.73,846.725 "/>
<polyline clip-path="url(#clip102)" style="stroke:#3569ac; stroke-linecap:round; stroke-linejoin:round; stroke-width:16; stroke-opacity:1; fill:none" points="429.034,160.055 434.637,389.765 440.24,457.048 445.843,525.357 451.446,593.809 457.05,659.134 462.653,719.522 468.256,773.89 473.859,822.023 479.462,864.116 485.065,900.635 490.668,932.048 496.271,958.889 501.874,981.699 507.477,1000.97 513.08,1017.19 518.683,1030.78 524.286,1042.1 529.889,1051.49 535.493,1059.25 541.096,1065.61 546.699,1070.81 552.302,1075.01 557.905,1078.37 563.508,1081 569.111,1083.01 574.714,1084.5 580.317,1085.55 585.92,1086.22 591.523,1086.59 597.126,1086.7 602.729,1086.59 608.332,1086.3 613.936,1085.85 619.539,1085.29 625.142,1084.61 630.745,1083.85 636.348,1083.01 641.951,1082.11 647.554,1081.16 653.157,1080.17 658.76,1079.15 664.363,1078.1 669.966,1077.02 675.569,1075.92 681.172,1074.82 686.776,1073.7 692.379,1072.56 697.982,1071.43 703.585,1070.29 709.188,1069.14 714.791,1067.99 720.394,1066.84 725.997,1065.68 731.6,1064.53 737.203,1063.38 742.806,1062.23 748.409,1061.08 754.012,1059.94 759.615,1058.8 765.219,1057.66 770.822,1056.53 776.425,1055.39 782.028,1054.27 787.631,1053.14 793.234,1052.02 798.837,1050.9 804.44,1049.79 810.043,1048.68 815.646,1047.57 821.249,1046.47 826.852,1045.37 832.455,1044.27 838.058,1043.18 843.662,1042.09 849.265,1041 854.868,1039.92 860.471,1038.84 866.074,1037.77 871.677,1036.7 877.28,1035.63 882.883,1034.57 888.486,1033.51 894.089,1032.45 899.692,1031.4 905.295,1030.35 910.898,1029.3 916.502,1028.26 922.105,1027.22 927.708,1026.18 933.311,1025.15 938.914,1024.12 944.517,1023.1 950.12,1022.08 955.723,1021.06 961.326,1020.04 966.929,1019.03 972.532,1018.02 978.135,1017.01 983.738,1016.01 989.341,1015.01 994.945,1014.02 1000.55,1013.02 1006.15,1012.04 1011.75,1011.05 1017.36,1010.07 1022.96,1009.09 1028.56,1008.11 1034.17,1007.14 1039.77,1006.17 1045.37,1005.22 1050.98,1004.25 1056.58,1003.29 1062.18,1002.33 1067.78,1001.37 1073.39,1000.42 1078.99,999.472 1084.59,998.526 1090.2,997.583 1095.8,996.644 1101.4,995.707 1107.01,994.774 1112.61,993.844 1118.21,992.917 1123.82,991.994 1129.42,991.073 1135.02,990.155 1140.62,989.239 1146.23,988.326 1151.83,987.417 1157.43,986.51 1163.04,985.606 1168.64,984.705 1174.24,983.806 1179.85,982.911 1185.45,982.018 1191.05,981.128 1196.66,980.241 1202.26,979.356 1207.86,978.474 1213.46,977.595 1219.07,976.719 1224.67,975.845 1230.27,974.974 1235.88,974.105 1241.48,973.239 1247.08,972.375 1252.69,971.514 1258.29,970.655 1263.89,969.799 1269.5,968.946 1275.1,968.095 1280.7,967.247 1286.3,966.402 1291.91,965.56 1297.51,964.719 1303.11,963.882 1308.72,963.046 1314.32,962.213 1319.92,961.383 1325.53,960.555 1331.13,959.729 1336.73,958.906 1342.34,958.085 1347.94,957.266 1353.54,956.45 1359.14,955.635 1364.75,954.824 1370.35,954.014 1375.95,953.207 1381.56,952.401 1387.16,951.598 1392.76,950.798 1398.37,949.999 1403.97,949.202 1409.57,948.408 1415.18,947.616 1420.78,946.827 1426.38,946.041 1431.98,945.256 1437.59,944.474 1443.19,943.694 1448.79,942.916 1454.4,942.141 1460,941.367 1465.6,940.596 1471.21,939.826 1476.81,939.059 1482.41,938.294 1488.01,937.531 1493.62,936.771 1499.22,936.012 1504.82,935.255 1510.43,934.501 1516.03,933.748 1521.63,932.997 1527.24,932.249 1532.84,931.502 1538.44,930.758 1544.05,930.015 1549.65,929.275 1555.25,928.536 1560.85,927.8 1566.46,927.065 1572.06,926.333 1577.66,925.603 1583.27,924.875 1588.87,924.148 1594.47,923.424 1600.08,922.701 1605.68,921.981 1611.28,921.262 1616.89,920.545 1622.49,919.831 1628.09,919.118 1633.69,918.407 1639.3,917.697 1644.9,916.99 1650.5,916.285 1656.11,915.581 1661.71,914.879 1667.31,914.179 1672.92,913.481 1678.52,912.785 1684.12,912.09 1689.73,911.397 1695.33,910.706 1700.93,910.017 1706.53,909.33 1712.14,908.645 1717.74,907.962 1723.34,907.28 1728.95,906.6 1734.55,905.922 1740.15,905.246 1745.76,904.571 1751.36,903.899 1756.96,903.227 1762.57,902.558 1768.17,901.89 1773.77,901.224 1779.37,900.56 1784.98,899.897 1790.58,899.237 1796.18,898.577 1801.79,897.92 1807.39,897.264 1812.99,896.609 1818.6,895.957 1824.2,895.305 1829.8,894.656 1835.41,894.008 1841.01,893.362 1846.61,892.717 1852.21,892.074 1857.82,891.432 1863.42,890.792 1869.02,890.154 1874.63,889.517 1880.23,888.882 1885.83,888.248 1891.44,887.616 1897.04,886.985 1902.64,886.356 1908.25,885.728 1913.85,885.102 1919.45,884.477 1925.05,883.854 1930.66,883.233 1936.26,882.613 1941.86,881.995 1947.47,881.379 1953.07,880.764 1958.67,880.151 1964.28,879.539 1969.88,878.928 1975.48,878.319 1981.09,877.712 1986.69,877.106 1992.29,876.501 1997.89,875.898 2003.5,875.296 2009.1,874.696 2014.7,874.097 2020.31,873.499 2025.91,872.903 2031.51,872.309 2037.12,871.715 2042.72,871.123 2048.32,870.533 2053.93,869.944 2059.53,869.356 2065.13,868.77 2070.73,868.185 2076.34,867.601 2081.94,867.019 2087.54,866.438 2093.15,865.858 2098.75,865.28 2104.35,864.703 2109.96,864.127 2115.56,863.552 2121.16,862.979 2126.77,862.408 2132.37,861.837 2137.97,861.268 2143.57,860.7 2149.18,860.134 2154.78,859.569 2160.38,859.005 2165.99,858.443 2171.59,857.882 2177.19,857.323 2182.8,856.764 2188.4,856.207 2194,855.652 2199.61,855.097 2205.21,854.544 2210.81,853.992 2216.41,853.441 2222.02,852.891 2227.62,852.343 2233.22,851.796 2238.83,851.25 2244.43,850.706 2250.03,850.162 2255.64,849.62 2261.24,849.079 2266.84,848.539 2272.45,848.001 2278.05,847.463 2283.65,846.927 2289.25,846.392 2296.73,845.68 "/>
<polyline clip-path="url(#clip102)" style="stroke:#b9b3f0; stroke-linecap:round; stroke-linejoin:round; stroke-width:16; stroke-opacity:1; fill:none" points="429.034,1364.68 434.637,1345.83 440.24,1331.84 445.843,1320.03 451.446,1308.57 457.05,1296.85 462.653,1284.76 468.256,1272.4 473.859,1259.94 479.462,1247.56 485.065,1235.45 490.668,1223.73 496.271,1212.5 501.874,1201.81 507.477,1191.68 513.08,1182.11 518.683,1173.08 524.286,1164.57 529.889,1156.56 535.493,1149.02 541.096,1141.91 546.699,1135.21 552.302,1128.89 557.905,1122.92 563.508,1117.28 569.111,1111.94 574.714,1106.88 580.317,1102.08 585.92,1097.53 591.523,1093.19 597.126,1089.06 602.729,1085.11 608.332,1081.33 613.936,1077.72 619.539,1074.25 625.142,1070.91 630.745,1067.7 636.348,1064.6 641.951,1061.61 647.554,1058.71 653.157,1055.9 658.76,1053.17 664.363,1050.52 669.966,1047.94 675.569,1045.43 681.172,1042.99 686.776,1040.6 692.379,1038.28 697.982,1036 703.585,1033.77 709.188,1031.59 714.791,1029.45 720.394,1027.35 725.997,1025.29 731.6,1023.27 737.203,1021.29 742.806,1019.35 748.409,1017.44 754.012,1015.57 759.615,1013.74 765.219,1011.94 770.822,1010.16 776.425,1008.41 782.028,1006.7 787.631,1005.01 793.234,1003.34 798.837,1001.71 804.44,1000.1 810.043,998.523 815.646,996.97 821.249,995.444 826.852,993.944 832.455,992.47 838.058,991.022 843.662,989.599 849.265,988.197 854.868,986.816 860.471,985.458 866.074,984.121 871.677,982.805 877.28,981.511 882.883,980.237 888.486,978.984 894.089,977.752 899.692,976.54 905.295,975.347 910.898,974.175 916.502,973.022 922.105,971.888 927.708,970.773 933.311,969.677 938.914,968.6 944.517,967.54 950.12,966.496 955.723,965.468 961.326,964.455 966.929,963.458 972.532,962.477 978.135,961.511 983.738,960.559 989.341,959.622 994.945,958.7 1000.55,957.791 1006.15,956.897 1011.75,956.016 1017.36,955.148 1022.96,954.294 1028.56,953.453 1034.17,952.624 1039.77,951.808 1045.37,951.004 1050.98,950.212 1056.58,949.432 1062.18,948.663 1067.78,947.905 1073.39,947.158 1078.99,946.42 1084.59,945.692 1090.2,944.973 1095.8,944.264 1101.4,943.564 1107.01,942.873 1112.61,942.191 1118.21,941.517 1123.82,940.853 1129.42,940.196 1135.02,939.547 1140.62,938.907 1146.23,938.274 1151.83,937.649 1157.43,937.031 1163.04,936.421 1168.64,935.818 1174.24,935.221 1179.85,934.631 1185.45,934.048 1191.05,933.471 1196.66,932.9 1202.26,932.336 1207.86,931.777 1213.46,931.224 1219.07,930.676 1224.67,930.133 1230.27,929.595 1235.88,929.062 1241.48,928.534 1247.08,928.01 1252.69,927.49 1258.29,926.975 1263.89,926.464 1269.5,925.957 1275.1,925.454 1280.7,924.955 1286.3,924.459 1291.91,923.968 1297.51,923.479 1303.11,922.995 1308.72,922.514 1314.32,922.036 1319.92,921.561 1325.53,921.089 1331.13,920.62 1336.73,920.154 1342.34,919.69 1347.94,919.23 1353.54,918.772 1359.14,918.316 1364.75,917.862 1370.35,917.411 1375.95,916.962 1381.56,916.515 1387.16,916.069 1392.76,915.626 1398.37,915.185 1403.97,914.745 1409.57,914.307 1415.18,913.87 1420.78,913.435 1426.38,913.001 1431.98,912.568 1437.59,912.136 1443.19,911.705 1448.79,911.275 1454.4,910.847 1460,910.419 1465.6,909.992 1471.21,909.565 1476.81,909.14 1482.41,908.715 1488.01,908.29 1493.62,907.866 1499.22,907.442 1504.82,907.019 1510.43,906.596 1516.03,906.174 1521.63,905.751 1527.24,905.328 1532.84,904.906 1538.44,904.483 1544.05,904.061 1549.65,903.638 1555.25,903.215 1560.85,902.792 1566.46,902.368 1572.06,901.944 1577.66,901.519 1583.27,901.094 1588.87,900.668 1594.47,900.241 1600.08,899.814 1605.68,899.386 1611.28,898.957 1616.89,898.526 1622.49,898.095 1628.09,897.664 1633.69,897.231 1639.3,896.799 1644.9,896.365 1650.5,895.931 1656.11,895.496 1661.71,895.06 1667.31,894.623 1672.92,894.185 1678.52,893.746 1684.12,893.305 1689.73,892.863 1695.33,892.419 1700.93,891.974 1706.53,891.526 1712.14,891.077 1717.74,890.626 1723.34,890.173 1728.95,889.717 1734.55,889.26 1740.15,888.8 1745.76,888.337 1751.36,887.872 1756.96,887.404 1762.57,886.934 1768.17,886.46 1773.77,885.983 1779.37,885.504 1784.98,885.021 1790.58,884.535 1796.18,884.045 1801.79,883.552 1807.39,883.056 1812.99,882.555 1818.6,882.051 1824.2,881.543 1829.8,881.031 1835.41,880.515 1841.01,879.995 1846.61,879.47 1852.21,878.941 1857.82,878.407 1863.42,877.869 1869.02,877.326 1874.63,876.778 1880.23,876.225 1885.83,875.665 1891.44,875.096 1897.04,874.527 1902.64,873.959 1908.25,873.39 1913.85,872.82 1919.45,872.249 1925.05,871.676 1930.66,871.101 1936.26,870.522 1941.86,869.94 1947.47,869.354 1953.07,868.764 1958.67,868.169 1964.28,867.568 1969.88,866.961 1975.48,866.347 1981.09,865.727 1986.69,865.098 1992.29,864.462 1997.89,863.817 2003.5,863.163 2009.1,862.499 2014.7,861.826 2020.31,861.141 2025.91,860.445 2031.51,859.738 2037.12,859.018 2042.72,858.285 2048.32,857.539 2053.93,856.78 2059.53,856.006 2065.13,855.217 2070.73,854.413 2076.34,853.593 2081.94,852.757 2087.54,851.903 2093.15,851.033 2098.75,850.144 2104.35,849.237 2109.96,848.311 2115.56,847.366 2121.16,846.4 2126.77,845.414 2132.37,844.407 2137.97,843.379 2143.57,842.328 2149.18,841.255 2154.78,840.159 2160.38,839.098 2165.99,838.032 2171.59,836.954 2177.19,835.862 2182.8,834.753 2188.4,833.625 2194,832.476 2199.61,831.303 2205.21,830.104 2210.81,828.878 2216.41,827.621 2222.02,826.331 2227.62,825.006 2233.22,823.644 2238.83,822.242 2244.43,820.799 2250.03,819.311 2255.64,817.776 2261.24,816.193 2266.84,814.558 2272.45,812.87 2278.05,811.126 2283.65,809.324 2289.25,807.462 2296.73,804.882 "/>
<polyline clip-path="url(#clip102)" style="stroke:#e7e5fa; stroke-linecap:round; stroke-linejoin:round; stroke-width:16; stroke-opacity:1; fill:none" points="429.034,160.055 434.637,340.36 440.24,507.374 445.843,604.963 451.446,660.694 457.05,694.982 462.653,718.915 468.256,738.03 473.859,754.845 479.462,770.339 485.065,784.837 490.668,798.435 496.271,811.149 501.874,823.01 507.477,834.044 513.08,844.278 518.683,853.755 524.286,862.51 529.889,870.586 535.493,878.026 541.096,884.866 546.699,891.143 552.302,896.897 557.905,902.166 563.508,906.991 569.111,911.393 574.714,915.406 580.317,919.058 585.92,922.376 591.523,925.389 597.126,928.123 602.729,930.598 608.332,932.828 613.936,934.835 619.539,936.635 625.142,938.244 630.745,939.68 636.348,940.957 641.951,942.094 647.554,943.093 653.157,943.968 658.76,944.728 664.363,945.383 669.966,945.94 675.569,946.408 681.172,946.794 686.776,947.107 692.379,947.355 697.982,947.547 703.585,947.677 709.188,947.757 714.791,947.791 720.394,947.781 725.997,947.73 731.6,947.643 737.203,947.522 742.806,947.371 748.409,947.194 754.012,946.992 759.615,946.77 765.219,946.532 770.822,946.275 776.425,946 782.028,945.712 787.631,945.41 793.234,945.097 798.837,944.773 804.44,944.439 810.043,944.095 815.646,943.744 821.249,943.386 826.852,943.022 832.455,942.653 838.058,942.28 843.662,941.904 849.265,941.526 854.868,941.147 860.471,940.765 866.074,940.38 871.677,939.995 877.28,939.608 882.883,939.22 888.486,938.831 894.089,938.442 899.692,938.052 905.295,937.663 910.898,937.273 916.502,936.883 922.105,936.494 927.708,936.105 933.311,935.717 938.914,935.329 944.517,934.943 950.12,934.558 955.723,934.174 961.326,933.792 966.929,933.411 972.532,933.032 978.135,932.654 983.738,932.276 989.341,931.9 994.945,931.524 1000.55,931.15 1006.15,930.777 1011.75,930.405 1017.36,930.034 1022.96,929.664 1028.56,929.295 1034.17,928.928 1039.77,928.561 1045.37,928.195 1050.98,927.83 1056.58,927.466 1062.18,927.103 1067.78,926.741 1073.39,926.38 1078.99,926.02 1084.59,925.661 1090.2,925.303 1095.8,924.945 1101.4,924.589 1107.01,924.233 1112.61,923.878 1118.21,923.524 1123.82,923.171 1129.42,922.819 1135.02,922.466 1140.62,922.115 1146.23,921.763 1151.83,921.412 1157.43,921.061 1163.04,920.711 1168.64,920.361 1174.24,920.011 1179.85,919.661 1185.45,919.311 1191.05,918.962 1196.66,918.613 1202.26,918.263 1207.86,917.914 1213.46,917.565 1219.07,917.216 1224.67,916.867 1230.27,916.518 1235.88,916.169 1241.48,915.82 1247.08,915.471 1252.69,915.121 1258.29,914.772 1263.89,914.422 1269.5,914.072 1275.1,913.722 1280.7,913.371 1286.3,913.02 1291.91,912.669 1297.51,912.318 1303.11,911.966 1308.72,911.613 1314.32,911.261 1319.92,910.907 1325.53,910.554 1331.13,910.2 1336.73,909.845 1342.34,909.488 1347.94,909.131 1353.54,908.774 1359.14,908.416 1364.75,908.057 1370.35,907.698 1375.95,907.338 1381.56,906.977 1387.16,906.615 1392.76,906.253 1398.37,905.889 1403.97,905.525 1409.57,905.16 1415.18,904.794 1420.78,904.427 1426.38,904.059 1431.98,903.689 1437.59,903.319 1443.19,902.947 1448.79,902.575 1454.4,902.2 1460,901.825 1465.6,901.448 1471.21,901.07 1476.81,900.69 1482.41,900.309 1488.01,899.927 1493.62,899.542 1499.22,899.157 1504.82,898.769 1510.43,898.38 1516.03,897.989 1521.63,897.596 1527.24,897.202 1532.84,896.806 1538.44,896.408 1544.05,896.007 1549.65,895.605 1555.25,895.201 1560.85,894.795 1566.46,894.387 1572.06,893.976 1577.66,893.564 1583.27,893.149 1588.87,892.732 1594.47,892.312 1600.08,891.891 1605.68,891.466 1611.28,891.04 1616.89,890.611 1622.49,890.178 1628.09,889.742 1633.69,889.305 1639.3,888.868 1644.9,888.428 1650.5,887.987 1656.11,887.545 1661.71,887.101 1667.31,886.654 1672.92,886.206 1678.52,885.755 1684.12,885.301 1689.73,884.845 1695.33,884.386 1700.93,883.924 1706.53,883.459 1712.14,882.991 1717.74,882.52 1723.34,882.044 1728.95,881.565 1734.55,881.082 1740.15,880.595 1745.76,880.104 1751.36,879.608 1756.96,879.108 1762.57,878.603 1768.17,878.094 1773.77,877.579 1779.37,877.059 1784.98,876.534 1790.58,876.003 1796.18,875.467 1801.79,874.925 1807.39,874.377 1812.99,873.822 1818.6,873.262 1824.2,872.695 1829.8,872.121 1835.41,871.541 1841.01,870.954 1846.61,870.36 1852.21,869.758 1857.82,869.15 1863.42,868.533 1869.02,867.909 1874.63,867.277 1880.23,866.637 1885.83,865.989 1891.44,865.333 1897.04,864.668 1902.64,863.994 1908.25,863.313 1913.85,862.633 1919.45,861.955 1925.05,861.277 1930.66,860.597 1936.26,859.915 1941.86,859.229 1947.47,858.539 1953.07,857.844 1958.67,857.141 1964.28,856.432 1969.88,855.713 1975.48,854.985 1981.09,854.246 1986.69,853.495 1992.29,852.731 1997.89,851.953 2003.5,851.161 2009.1,850.352 2014.7,849.525 2020.31,848.681 2025.91,847.817 2031.51,846.933 2037.12,846.028 2042.72,845.1 2048.32,844.149 2053.93,843.173 2059.53,842.171 2065.13,841.143 2070.73,840.087 2076.34,839.002 2081.94,837.887 2087.54,836.741 2093.15,835.564 2098.75,834.353 2104.35,833.108 2109.96,831.828 2115.56,830.512 2121.16,829.158 2126.77,827.766 2132.37,826.335 2137.97,824.887 2143.57,823.494 2149.18,822.078 2154.78,820.636 2160.38,819.164 2165.99,817.659 2171.59,816.117 2177.19,814.535 2182.8,812.91 2188.4,811.237 2194,809.514 2199.61,807.737 2205.21,805.903 2210.81,804.008 2216.41,802.048 2222.02,800.021 2227.62,797.922 2233.22,795.748 2238.83,793.496 2244.43,791.163 2250.03,788.744 2255.64,786.237 2261.24,783.637 2266.84,780.948 2272.45,778.17 2278.05,775.305 2283.65,772.353 2289.25,769.317 2296.73,765.138 "/>
<path clip-path="url(#clip100)" d="M1526.74 492.858 L2286.76 492.858 L2286.76 166.48 L1526.74 166.48  Z" fill="#ffffff" fill-rule="evenodd" fill-opacity="1"/>
<polyline clip-path="url(#clip100)" style="stroke:#000000; stroke-linecap:round; stroke-linejoin:round; stroke-width:4; stroke-opacity:1; fill:none" points="1526.74,492.858 2286.76,492.858 2286.76,166.48 1526.74,166.48 1526.74,492.858 "/>
<polyline clip-path="url(#clip100)" style="stroke:#2b194c; stroke-linecap:round; stroke-linejoin:round; stroke-width:20; stroke-opacity:1; fill:none" points="1548.74,231.755 1680.73,231.755 "/>
<g clip-path="url(#clip100)">
<text style="fill:#000000; fill-opacity:1; font-family:Bookman Old Style,Bookman,Georgia,serif; font-size:63px; text-anchor:start;" transform="rotate(0, 1702.72, 253.255)" x="1702.72" y="253.255">Nelson fiducial u0</text>
</g>
<polyline clip-path="url(#clip100)" style="stroke:#3569ac; stroke-linecap:round; stroke-linejoin:round; stroke-width:20; stroke-opacity:1; fill:none" points="1548.74,297.031 1680.73,297.031 "/>
<g clip-path="url(#clip100)">
<text style="fill:#000000; fill-opacity:1; font-family:Bookman Old Style,Bookman,Georgia,serif; font-size:63px; text-anchor:start;" transform="rotate(0, 1702.72, 318.531)" x="1702.72" y="318.531">Nelson neutral u0</text>
</g>
<polyline clip-path="url(#clip100)" style="stroke:#b9b3f0; stroke-linecap:round; stroke-linejoin:round; stroke-width:20; stroke-opacity:1; fill:none" points="1548.74,362.307 1680.73,362.307 "/>
<g clip-path="url(#clip100)">
<text style="fill:#000000; fill-opacity:1; font-family:Bookman Old Style,Bookman,Georgia,serif; font-size:63px; text-anchor:start;" transform="rotate(0, 1702.72, 383.807)" x="1702.72" y="383.807">Umist fiducial u0</text>
</g>
<polyline clip-path="url(#clip100)" style="stroke:#e7e5fa; stroke-linecap:round; stroke-linejoin:round; stroke-width:20; stroke-opacity:1; fill:none" points="1548.74,427.583 1680.73,427.583 "/>
<g clip-path="url(#clip100)">
<text style="fill:#000000; fill-opacity:1; font-family:Bookman Old Style,Bookman,Georgia,serif; font-size:63px; text-anchor:start;" transform="rotate(0, 1702.72, 449.083)" x="1702.72" y="449.083">Umist neutral u0</text>
</g>
</svg>
